<svg xmlns="http://www.w3.org/2000/svg" width="300" height="212" viewBox="0 0 300 212">
<g>
<path d="M 0.00 103.15 L 0.00 48.67 C0.00,75.43 0.25,97.08 0.56,96.78 C0.86,96.47 1.93,92.24 2.94,87.36 C7.81,63.81 18.54,42.81 33.99,26.62 C50.71,9.08 69.01,1.09 89.50,2.36 C109.01,3.58 123.60,11.75 141.55,31.52 C145.78,36.18 149.54,40.00 149.90,40.00 C150.27,40.00 153.25,36.80 156.53,32.89 C168.85,18.21 183.81,7.18 196.50,3.41 C199.80,2.43 202.93,1.26 203.45,0.81 C203.97,0.37 158.41,0.00 102.20,0.00 L 300.00 0.00 L 300.00 100.74 L 285.25 86.11 C249.75,50.90 216.68,38.35 186.28,48.54 C178.73,51.07 164.73,58.79 165.24,60.14 C165.39,60.50 168.65,65.52 172.50,71.29 L 179.50 81.78 L 185.62 81.26 C197.71,80.22 208.59,85.04 213.66,93.67 C216.11,97.83 216.50,99.54 216.48,106.00 C216.46,114.25 214.96,118.19 209.78,123.66 L 206.79 126.81 L 216.16 144.00 L 221.83 144.02 C234.23,144.07 244.02,153.21 243.99,164.72 C243.98,169.27 240.22,177.62 236.75,180.81 L 234.24 183.12 L 236.73 190.26 C239.73,198.90 239.62,208.34 236.49,210.63 C234.89,211.80 239.43,212.00 267.31,212.00 L 231.15 212.00 L 228.10 209.43 C225.19,206.98 224.68,205.75 220.37,190.75 C219.99,189.44 218.80,189.00 215.61,189.00 C209.63,189.00 201.22,184.53 197.76,179.50 C192.35,171.64 193.16,160.68 199.71,153.03 L 203.17 148.98 L 199.21 141.77 L 195.25 134.56 L 187.37 134.84 C174.51,135.30 166.52,131.32 160.99,121.69 C158.52,117.38 158.02,115.39 158.03,110.00 C158.04,103.51 160.30,96.53 163.56,92.94 C164.85,91.51 164.22,90.44 157.84,83.17 C153.91,78.68 150.19,75.03 149.59,75.07 C148.99,75.11 145.74,78.32 142.38,82.21 L 136.25 89.27 L 139.26 94.11 C141.60,97.88 142.37,100.46 142.76,105.83 C143.37,114.36 142.07,118.50 136.99,124.28 C131.11,130.95 124.58,133.51 113.91,133.33 L 105.32 133.19 L 101.62 140.04 L 97.92 146.88 L 101.43 151.48 C107.74,159.74 108.52,169.59 103.48,177.21 C100.03,182.42 94.61,185.73 87.00,187.27 L 80.55 188.58 L 78.39 196.35 C75.66,206.17 70.64,211.97 66.11,210.54 C61.66,209.12 60.74,199.29 64.05,188.57 L 66.10 181.92 L 63.04 178.05 C50.45,162.16 58.48,143.86 78.74,142.23 L 85.04 141.72 L 93.99 125.80 L 90.55 121.79 C79.06,108.36 83.31,88.84 99.22,82.00 C103.14,80.32 105.89,79.92 112.61,80.08 L 121.07 80.29 L 127.73 70.51 L 134.38 60.72 L 131.94 58.75 C127.72,55.33 116.26,50.04 109.75,48.50 C101.86,46.64 87.49,46.61 78.86,48.44 C58.03,52.86 35.64,67.01 12.75,90.22 ZM 298.80 89.00 C299.18,91.47 299.62,72.62 299.76,47.09 C299.90,21.57 299.86,0.53 299.66,0.33 C299.47,0.14 282.70,0.09 262.40,0.24 L 225.50 0.50 L 231.50 2.34 C234.80,3.36 241.76,6.51 246.97,9.34 C263.46,18.32 277.68,34.58 288.01,56.26 C292.85,66.43 297.45,80.38 298.80,89.00 ZM 75.90 176.01 C82.96,179.74 90.79,177.42 94.36,170.54 C96.09,167.21 96.17,166.34 95.04,163.13 C92.66,156.41 87.70,153.00 80.28,153.00 C66.97,153.02 63.81,169.62 75.90,176.01 ZM 214.00 178.88 C217.25,180.17 217.81,180.18 222.17,178.97 C229.77,176.86 234.79,167.37 231.59,161.18 C229.22,156.60 226.28,155.00 220.18,155.00 C213.49,155.00 209.47,157.22 206.82,162.38 C203.49,168.86 206.56,175.92 214.00,178.88 ZM 220.90 29.72 C222.77,30.97 224.93,32.00 225.70,32.00 C228.26,32.00 232.55,29.20 233.93,26.64 C236.92,21.05 230.89,15.05 223.65,16.41 C216.19,17.81 214.60,25.49 220.90,29.72 ZM 68.59 29.92 C71.96,33.93 77.41,34.20 81.35,30.55 C83.96,28.14 84.85,23.81 83.23,21.40 C80.55,17.38 72.08,16.83 68.45,20.45 C65.32,23.59 65.35,26.08 68.59,29.92 ZM 192.45 30.55 C196.10,34.19 201.06,33.90 204.48,29.84 C206.46,27.49 206.98,26.02 206.53,24.09 C204.47,15.38 190.00,16.25 190.00,25.08 C190.00,26.94 190.94,29.03 192.45,30.55 ZM 96.81 31.96 C100.55,35.71 103.85,35.84 107.92,32.41 C113.94,27.34 110.86,19.97 102.75,20.03 C97.58,20.07 95.21,21.71 94.39,25.82 C93.87,28.39 94.29,29.44 96.81,31.96 ZM 47.45 45.55 C50.59,48.68 55.03,48.74 58.57,45.69 C64.08,40.95 60.98,34.00 53.35,34.00 C45.63,34.00 42.35,40.44 47.45,45.55 ZM 241.56 42.89 C245.02,47.00 249.99,47.20 253.55,43.35 C256.73,39.92 256.67,36.67 253.37,34.07 C248.50,30.24 241.15,32.14 239.56,37.64 C239.13,39.11 239.75,40.74 241.56,42.89 ZM 208.81 0.32 C208.01,0.64 208.25,0.87 209.42,0.92 C210.47,0.96 211.06,0.73 210.73,0.40 C210.40,0.06 209.53,0.03 208.81,0.32 ZM 218.81 0.32 C218.01,0.64 218.25,0.87 219.42,0.92 C220.47,0.96 221.06,0.73 220.73,0.40 C220.40,0.06 219.53,0.03 218.81,0.32 Z" fill="rgb(1,1,1)"/>
<path d="M 218.81 0.32 C219.53,0.03 220.40,0.06 220.73,0.40 C221.06,0.73 220.47,0.96 219.42,0.92 C218.25,0.87 218.01,0.64 218.81,0.32 Z" fill="rgb(18,18,18)"/>
<path d="M 208.81 0.32 C209.53,0.03 210.40,0.06 210.73,0.40 C211.06,0.73 210.47,0.96 209.42,0.92 C208.25,0.87 208.01,0.64 208.81,0.32 Z" fill="rgb(61,61,61)"/>
<path d="M 0.00 48.67 L 0.00 47.00 C0.00,72.85 0.37,94.00 0.83,94.00 C1.28,94.00 2.18,91.13 2.83,87.62 C3.62,83.35 4.86,78.69 6.45,73.89 C5.06,78.27 3.89,82.77 2.94,87.36 C1.93,92.24 0.86,96.47 0.56,96.78 C0.25,97.08 0.00,75.43 0.00,48.67 ZM 17.96 47.92 C19.33,45.50 20.74,43.18 22.18,41.00 C24.10,38.10 26.77,34.71 29.76,31.31 C25.38,36.45 21.44,42.01 17.96,47.92 ZM 39.72 21.04 C42.49,18.47 45.13,16.28 47.32,14.79 C48.76,13.81 50.19,12.89 51.61,12.04 C47.56,14.55 43.60,17.55 39.72,21.04 ZM 74.14 3.22 C79.12,2.31 84.20,2.03 89.50,2.36 C84.24,2.03 79.12,2.32 74.14,3.22 Z" fill="rgb(213,213,213)"/>
<path d="M 0.00 157.57 L 0.00 103.15 L 12.75 90.22 C35.64,67.01 58.03,52.86 78.86,48.44 C87.49,46.61 101.86,46.64 109.75,48.50 C116.26,50.04 127.72,55.33 131.94,58.75 L 134.38 60.72 L 127.73 70.51 L 121.07 80.29 L 112.61 80.08 C105.89,79.92 103.14,80.32 99.22,82.00 C83.31,88.84 79.06,108.36 90.55,121.79 L 93.99 125.80 L 89.51 133.76 L 85.04 141.72 L 78.74 142.23 C58.48,143.86 50.45,162.16 63.04,178.05 L 66.10 181.92 L 64.05 188.57 C60.74,199.29 61.66,209.12 66.11,210.54 C70.64,211.97 75.66,206.17 78.39,196.35 L 80.55 188.58 L 87.00 187.27 C94.61,185.73 100.03,182.42 103.48,177.21 C108.52,169.59 107.74,159.74 101.43,151.48 L 97.92 146.88 L 101.62 140.04 L 105.32 133.19 L 113.91 133.33 C124.58,133.51 131.11,130.95 136.99,124.28 C142.07,118.50 143.37,114.36 142.76,105.83 C142.37,100.46 141.60,97.88 139.26,94.11 L 136.25 89.27 L 142.38 82.21 C145.74,78.32 148.99,75.11 149.59,75.07 C150.19,75.03 153.91,78.68 157.84,83.17 C164.22,90.44 164.85,91.51 163.56,92.94 C160.30,96.53 158.04,103.51 158.03,110.00 C158.02,115.39 158.52,117.38 160.99,121.69 C166.52,131.32 174.51,135.30 187.37,134.84 L 195.25 134.56 L 199.21 141.77 L 203.17 148.98 L 199.71 153.03 C193.16,160.68 192.35,171.64 197.76,179.50 C201.22,184.53 209.63,189.00 215.61,189.00 C218.80,189.00 219.99,189.44 220.37,190.75 C224.68,205.75 225.19,206.98 228.10,209.43 L 231.15 212.00 L 115.58 212.00 L 0.00 212.00 L 0.00 157.57 ZM 236.49 210.63 C239.62,208.34 239.73,198.90 236.73,190.26 L 234.24 183.12 L 236.75 180.81 C240.22,177.62 243.98,169.27 243.99,164.72 C244.02,153.21 234.23,144.07 221.83,144.02 L 216.16 144.00 L 211.48 135.41 L 206.79 126.81 L 209.78 123.66 C214.96,118.19 216.46,114.25 216.48,106.00 C216.50,99.54 216.11,97.83 213.66,93.67 C208.59,85.04 197.71,80.22 185.62,81.26 L 179.50 81.78 L 172.50 71.29 C168.65,65.52 165.39,60.50 165.24,60.14 C164.73,58.79 178.73,51.07 186.28,48.54 C216.68,38.35 249.75,50.90 285.25,86.11 L 300.00 100.74 L 300.00 156.37 L 300.00 212.00 L 267.31 212.00 C239.43,212.00 234.89,211.80 236.49,210.63 ZM 214.00 178.88 C206.56,175.92 203.49,168.86 206.82,162.38 C209.47,157.22 213.49,155.00 220.18,155.00 C226.28,155.00 229.22,156.60 231.59,161.18 C234.79,167.37 229.77,176.86 222.17,178.97 C217.81,180.18 217.25,180.17 214.00,178.88 ZM 75.90 176.01 C63.81,169.62 66.97,153.02 80.28,153.00 C87.70,153.00 92.66,156.41 95.04,163.13 C96.17,166.34 96.09,167.21 94.36,170.54 C90.79,177.42 82.96,179.74 75.90,176.01 ZM 0.00 47.00 L 0.00 0.00 L 102.20 0.00 C158.41,0.00 203.97,0.37 203.45,0.81 C202.93,1.26 199.80,2.43 196.50,3.41 C183.81,7.18 168.85,18.21 156.53,32.89 C153.25,36.80 150.27,40.00 149.90,40.00 C149.54,40.00 145.78,36.18 141.55,31.52 C123.60,11.75 109.01,3.58 89.50,2.36 C74.50,1.43 61.21,5.34 47.32,14.79 C40.01,19.76 27.80,32.48 22.18,41.00 C13.26,54.50 5.47,73.27 2.83,87.62 C2.18,91.13 1.28,94.00 0.83,94.00 C0.37,94.00 0.00,72.85 0.00,47.00 ZM 298.80 89.00 C297.45,80.38 292.85,66.43 288.01,56.26 C277.68,34.58 263.46,18.32 246.97,9.34 C241.76,6.51 234.80,3.36 231.50,2.34 L 225.50 0.50 L 262.40 0.24 C282.70,0.09 299.47,0.14 299.66,0.33 C299.86,0.53 299.90,21.57 299.76,47.09 C299.62,72.62 299.18,91.47 298.80,89.00 ZM 47.45 45.55 C42.35,40.44 45.63,34.00 53.35,34.00 C60.98,34.00 64.08,40.95 58.57,45.69 C55.03,48.74 50.59,48.68 47.45,45.55 ZM 241.56 42.89 C239.75,40.74 239.13,39.11 239.56,37.64 C241.15,32.14 248.50,30.24 253.37,34.07 C256.67,36.67 256.73,39.92 253.55,43.35 C249.99,47.20 245.02,47.00 241.56,42.89 ZM 96.81 31.96 C94.29,29.44 93.87,28.39 94.39,25.82 C95.21,21.71 97.58,20.07 102.75,20.03 C110.86,19.97 113.94,27.34 107.92,32.41 C103.85,35.84 100.55,35.71 96.81,31.96 ZM 68.59 29.92 C65.35,26.08 65.32,23.59 68.45,20.45 C72.08,16.83 80.55,17.38 83.23,21.40 C84.85,23.81 83.96,28.14 81.35,30.55 C77.41,34.20 71.96,33.93 68.59,29.92 ZM 192.45 30.55 C190.94,29.03 190.00,26.94 190.00,25.08 C190.00,16.25 204.47,15.38 206.53,24.09 C206.98,26.02 206.46,27.49 204.48,29.84 C201.06,33.90 196.10,34.19 192.45,30.55 ZM 220.90 29.72 C214.60,25.49 216.19,17.81 223.65,16.41 C230.89,15.05 236.92,21.05 233.93,26.64 C232.55,29.20 228.26,32.00 225.70,32.00 C224.93,32.00 222.77,30.97 220.90,29.72 Z" fill="rgb(254,254,254)"/>
</g>
</svg>