<svg xmlns="http://www.w3.org/2000/svg" width="436" height="480" viewBox="0 0 436 480">
<g>
<path d="M 335.00 470.97 C319.10,473.02 303.57,471.28 286.31,465.50 C262.38,457.50 246.53,445.09 231.52,422.64 C227.16,416.11 222.56,410.30 221.30,409.73 C218.19,408.31 216.38,410.08 208.23,422.50 C196.72,440.04 183.15,452.16 165.61,460.61 C131.84,476.86 87.41,473.42 51.75,451.80 C41.21,445.41 34.23,439.43 27.58,431.12 C2.14,399.30 1.80,357.28 26.66,316.19 C39.00,295.79 54.08,284.86 75.95,280.44 C83.25,278.97 85.72,278.90 94.16,279.92 C106.19,281.38 115.47,283.90 125.27,288.36 C148.85,299.11 168.69,319.21 175.43,339.17 C185.00,367.51 175.68,395.53 149.97,415.68 C129.01,432.11 102.36,433.17 80.78,418.42 C66.96,408.98 58.58,396.35 55.16,379.83 C53.66,372.55 53.66,371.42 55.24,363.78 C58.62,347.44 67.18,335.48 80.00,329.17 C93.24,322.65 103.67,322.78 116.86,329.64 C129.33,336.12 140.00,349.72 140.00,359.14 C140.00,364.10 135.44,372.12 130.18,376.43 C125.41,380.32 115.08,384.00 108.88,384.00 C105.54,384.00 104.68,383.52 102.99,380.75 C99.38,374.82 100.51,372.24 108.50,368.22 C114.72,365.09 116.50,362.56 116.50,356.82 C116.50,352.35 116.12,351.50 112.76,348.42 C109.49,345.42 108.37,345.00 103.71,345.00 C90.47,345.00 78.91,356.79 78.79,370.43 C78.72,378.17 82.20,385.36 89.80,393.17 C100.32,403.99 110.39,407.90 124.34,406.61 C134.06,405.70 140.65,402.28 147.87,394.40 C157.32,384.08 161.00,374.74 161.00,361.05 C161.00,350.77 159.15,343.03 154.55,334.09 C152.69,330.47 150.87,326.49 150.51,325.25 C150.16,324.01 149.45,323.00 148.93,323.00 C148.42,323.00 147.66,322.98 147.25,322.96 C146.84,322.94 144.93,321.40 143.00,319.55 C137.95,314.68 129.95,310.29 119.57,306.70 C111.00,303.73 109.76,303.56 97.00,303.71 C89.57,303.80 81.25,304.36 78.50,304.96 C66.32,307.61 55.51,313.88 48.61,322.30 C37.55,335.79 30.68,365.23 33.85,385.50 C37.58,409.34 49.30,424.72 72.50,436.24 C88.52,444.19 100.80,446.42 125.12,445.77 C141.65,445.33 142.94,445.15 151.46,442.05 C162.58,438.01 168.68,434.15 177.16,425.80 C193.46,409.74 201.02,384.39 198.15,355.46 C197.48,348.66 196.01,339.59 194.90,335.30 C187.87,308.33 165.27,280.97 141.24,270.34 C124.48,262.93 100.82,261.01 52.70,263.13 C51.99,263.16 51.29,263.20 50.61,263.23 C32.73,264.02 27.42,264.25 25.13,261.74 C24.07,260.59 23.66,258.85 22.95,256.32 C21.12,249.78 21.32,232.43 23.27,227.82 C24.67,224.53 25.33,224.07 29.57,223.44 C32.18,223.05 50.64,223.31 70.61,224.02 C111.46,225.47 123.35,225.08 133.50,221.94 C148.82,217.19 160.15,209.87 173.02,196.38 C184.71,184.12 192.11,171.69 197.34,155.50 C201.29,143.31 202.27,135.92 202.22,119.00 C202.17,99.79 200.60,92.16 193.80,78.00 C189.39,68.80 187.69,66.44 180.13,58.97 C170.97,49.92 163.19,45.27 150.00,40.96 C139.72,37.60 115.89,37.10 102.08,39.96 C71.71,46.23 50.87,62.15 41.92,85.91 C32.82,110.07 36.56,143.41 50.63,163.53 C59.57,176.32 68.17,181.16 86.01,183.47 C91.96,184.24 112.81,182.38 121.00,180.35 C146.94,173.92 164.00,152.08 164.00,125.29 C164.00,110.30 159.95,100.83 149.26,90.84 C139.49,81.70 129.82,78.55 113.58,79.21 C100.02,79.77 94.18,81.96 87.62,88.98 C81.64,95.37 79.00,103.78 79.01,116.36 C79.02,126.93 81.45,133.68 86.90,138.26 C99.67,149.01 119.48,140.03 117.74,124.29 C117.25,119.89 116.63,118.96 110.10,112.92 C100.82,104.31 100.66,100.17 109.60,99.86 C119.72,99.52 131.55,107.23 134.62,116.18 C137.00,123.12 136.84,132.92 134.24,139.67 C128.67,154.14 112.47,164.26 97.35,162.70 C90.04,161.94 78.30,156.01 72.18,149.99 C62.04,140.01 57.50,127.70 58.23,112.20 C58.98,96.14 63.96,84.94 75.44,73.42 C84.04,64.80 92.96,60.08 106.56,56.93 C115.92,54.77 116.36,54.76 124.83,56.38 C141.21,59.51 155.42,68.57 166.44,82.94 C170.04,87.63 174.08,94.14 174.54,96.00 C174.61,96.28 175.69,98.75 176.93,101.50 C180.37,109.06 183.28,124.42 182.52,131.00 C181.11,143.33 174.33,159.84 167.14,168.48 C164.86,171.22 163.00,173.76 163.00,174.11 C163.00,175.39 146.07,189.27 139.84,193.10 C135.43,195.81 132.36,197.00 129.75,197.00 C127.06,197.00 126.00,197.43 126.00,198.52 C126.00,200.47 123.01,201.59 109.81,204.58 C84.03,210.42 61.00,206.04 44.76,192.21 C21.90,172.75 9.03,129.20 16.01,94.94 C25.20,49.85 55.39,22.39 105.13,13.88 C118.77,11.55 129.92,11.75 143.28,14.56 C151.59,16.31 166.69,21.32 172.50,24.27 C184.74,30.46 198.33,41.99 206.48,53.08 C208.67,56.06 212.21,60.06 214.34,61.96 L 218.21 65.42 L 221.86 61.39 C223.86,59.17 228.40,53.87 231.96,49.62 C248.96,29.26 271.27,16.26 297.50,11.42 C308.12,9.47 331.39,9.92 342.00,12.29 C361.51,16.64 380.05,24.13 388.72,31.16 C402.69,42.49 406.00,45.35 406.00,46.13 C406.00,46.60 407.48,48.68 409.29,50.75 C422.00,65.27 431.01,90.23 430.99,110.86 C430.96,140.18 415.40,171.66 391.75,190.22 C386.45,194.39 379.41,197.67 369.50,200.59 C358.27,203.91 341.44,204.34 331.00,201.58 C291.31,191.08 264.83,166.92 256.95,134.00 C250.50,107.04 269.40,71.36 296.77,58.83 C314.74,50.61 334.58,51.22 353.00,60.56 C359.13,63.67 361.41,65.44 369.01,73.00 C383.24,87.17 387.72,106.06 381.59,126.10 C374.50,149.28 354.09,162.17 331.84,157.53 C319.93,155.05 307.74,148.28 303.23,141.65 C300.23,137.25 297.00,127.90 297.00,123.65 C297.00,119.23 299.42,112.46 302.67,107.75 C308.65,99.12 321.96,94.65 328.82,98.96 C333.25,101.75 332.84,104.84 327.73,107.34 C322.03,110.13 318.77,115.00 318.77,120.75 C318.77,131.13 324.12,136.75 334.93,137.73 C343.27,138.48 347.55,137.41 351.94,133.44 C358.13,127.84 360.37,121.42 360.44,109.00 C360.49,99.43 360.25,97.99 357.67,92.73 C355.78,88.90 353.28,85.77 350.17,83.40 C342.68,77.67 339.69,76.77 326.47,76.25 C307.39,75.50 296.72,79.26 286.11,90.48 C279.94,97.00 276.56,103.93 274.93,113.39 C273.04,124.38 275.61,140.10 280.62,148.14 C281.87,150.14 282.70,151.97 282.47,152.19 C282.25,152.42 285.59,156.03 289.91,160.23 C304.48,174.38 318.62,179.25 345.50,179.35 C359.52,179.41 362.21,179.15 367.23,177.27 C381.50,171.92 391.56,161.22 398.92,143.55 C403.94,131.48 405.36,123.98 405.35,109.50 C405.35,89.25 401.51,77.90 390.04,64.29 C379.74,52.06 365.55,43.60 346.51,38.35 C335.16,35.22 309.98,33.97 298.72,35.98 C267.10,41.63 246.34,60.56 237.83,91.50 C235.96,98.31 235.62,102.17 235.56,117.50 C235.49,137.74 236.96,145.55 243.49,159.68 C245.35,163.71 246.64,167.00 246.35,167.00 C246.07,167.00 247.12,168.69 248.70,170.75 C250.28,172.81 252.90,176.49 254.53,178.93 C259.44,186.25 272.99,199.28 281.42,204.78 C290.47,210.69 299.98,214.88 311.50,218.03 C325.96,221.98 355.80,221.75 397.82,217.35 C416.13,215.43 417.54,215.77 418.51,222.24 C418.87,224.63 419.02,234.93 418.83,245.14 C418.57,259.77 418.18,264.08 417.01,265.50 C415.64,267.14 414.10,267.24 398.51,266.68 C389.15,266.34 372.05,265.11 360.50,263.95 C333.00,261.18 316.36,261.61 303.61,265.42 C298.72,266.88 294.22,267.89 293.61,267.67 C292.05,267.11 289.00,268.83 288.99,270.29 C288.99,270.95 286.17,273.30 282.74,275.50 C275.91,279.87 260.09,295.19 257.75,299.68 C256.94,301.23 254.66,305.14 252.68,308.38 C248.47,315.25 244.07,326.44 241.42,337.00 C239.93,342.96 239.55,348.10 239.59,362.00 C239.63,377.60 239.91,380.54 242.22,389.09 C246.52,405.03 253.04,416.11 264.27,426.58 C278.50,439.83 293.88,445.65 317.36,446.67 C350.21,448.10 377.30,436.36 393.38,413.73 C402.00,401.61 405.56,387.40 404.70,368.50 C403.41,339.96 392.11,319.45 372.50,310.04 C361.53,304.78 355.52,303.51 341.50,303.52 C312.56,303.52 292.89,313.52 283.04,333.24 C278.94,341.44 277.67,348.72 278.27,360.49 C279.30,380.50 288.36,395.62 303.91,403.28 C309.97,406.26 311.21,406.50 320.50,406.50 C329.90,406.50 330.98,406.28 337.46,403.09 C345.77,399.00 356.64,388.61 360.43,381.14 C364.09,373.91 364.08,363.24 360.41,355.77 C356.68,348.20 350.51,343.72 343.15,343.25 C331.42,342.49 324.89,346.87 323.45,356.46 C322.42,363.36 325.18,367.11 332.78,369.12 C337.07,370.25 340.00,373.06 340.00,376.03 C340.00,378.14 334.23,383.60 330.51,385.01 C324.59,387.24 313.68,382.94 308.51,376.33 C305.13,372.00 302.08,364.02 302.03,359.36 C301.98,354.48 305.83,343.21 309.09,338.72 C316.10,329.04 332.30,322.66 344.25,324.87 C351.10,326.14 360.12,329.54 362.56,331.78 C363.63,332.76 365.89,334.53 367.58,335.73 C372.05,338.87 378.71,349.33 381.09,356.93 C382.22,360.54 383.39,366.65 383.69,370.50 C384.78,384.49 378.24,401.13 367.62,411.38 C361.82,416.97 354.98,421.99 352.59,422.42 C351.99,422.52 350.14,423.33 348.49,424.21 C338.55,429.48 322.41,430.67 310.64,426.99 C304.56,425.10 302.07,423.96 293.89,419.38 C289.39,416.86 278.92,406.65 274.52,400.48 C265.53,387.88 258.98,369.32 259.02,356.56 C259.09,330.98 276.56,305.25 302.83,292.03 C318.88,283.96 332.40,280.74 350.50,280.68 C362.58,280.65 364.17,280.87 372.95,283.87 C384.93,287.96 392.10,292.33 400.42,300.61 C408.51,308.66 412.07,313.74 417.03,324.33 C424.60,340.48 429.83,365.45 428.64,379.72 C425.89,412.50 409.97,438.82 383.35,454.55 C377.08,458.26 367.06,462.98 364.54,463.42 C363.97,463.52 362.60,464.09 361.50,464.68 C358.51,466.31 343.52,469.87 335.00,470.97 ZM 202.21 281.44 C209.05,283.29 228.91,283.40 235.50,281.64 C247.17,278.52 257.56,270.90 262.49,261.86 C266.56,254.38 267.22,242.22 264.01,233.72 C259.51,221.78 245.88,211.14 231.20,208.10 C224.32,206.67 206.56,206.69 199.80,208.13 C186.36,210.98 173.95,220.74 170.37,231.28 C167.61,239.41 168.08,250.19 171.52,257.87 C176.29,268.50 188.26,277.69 202.21,281.44 Z" fill="rgb(1,1,1)"/>
<path d="M 329.90 262.17 C309.95,262.31 297.28,266.19 283.13,275.24 C286.39,273.12 288.99,270.93 288.99,270.29 C289.00,268.83 292.05,267.11 293.61,267.67 C294.22,267.89 298.72,266.88 303.61,265.42 C310.74,263.29 319.10,262.22 329.90,262.17 ZM 155.78 336.58 C153.46,331.80 150.34,327.33 146.39,323.06 C140.94,317.17 134.81,312.92 126.33,309.29 C133.46,312.33 139.10,315.80 143.00,319.55 C144.93,321.40 146.84,322.94 147.25,322.96 C147.66,322.98 148.42,323.00 148.93,323.00 C149.45,323.00 150.16,324.01 150.51,325.25 C150.87,326.49 152.69,330.47 154.55,334.09 C154.99,334.93 155.39,335.76 155.78,336.58 ZM 154.43 182.09 C149.69,186.07 144.22,190.37 141.55,192.07 C136.02,195.58 130.19,198.44 124.00,200.69 C125.50,199.98 126.00,199.32 126.00,198.52 C126.00,197.43 127.06,197.00 129.75,197.00 C132.36,197.00 135.43,195.81 139.84,193.10 C143.10,191.10 149.27,186.35 154.43,182.09 ZM 22.88 159.74 C14.61,139.37 11.82,115.50 16.01,94.94 C11.80,115.60 14.81,139.64 22.88,159.74 ZM 82.33 206.89 C77.70,206.80 74.83,206.26 69.97,204.98 C69.46,204.84 68.95,204.70 68.45,204.56 C72.87,205.76 77.51,206.54 82.33,206.89 ZM 118.40 202.52 C115.19,203.46 111.89,204.24 108.48,204.87 C108.93,204.78 109.37,204.68 109.81,204.58 C113.37,203.77 116.18,203.10 118.40,202.52 ZM 266.39 289.68 C262.22,293.94 258.62,298.02 257.72,299.75 C256.93,301.26 254.66,305.14 252.68,308.38 C254.66,305.14 256.94,301.23 257.75,299.68 C258.75,297.76 262.22,293.86 266.39,289.68 ZM 158.63 343.90 C160.28,349.23 161.00,354.65 161.00,361.05 C161.00,354.86 160.23,349.18 158.63,343.90 ZM 53.49 198.37 C51.69,197.34 49.97,196.22 48.31,195.01 C49.98,196.22 51.71,197.34 53.49,198.37 Z" fill="rgb(10,10,10)"/>
<path d="M 0.00 240.00 L 0.00 0.00 L 218.00 0.00 L 436.00 0.00 L 436.00 240.00 L 436.00 480.00 L 218.00 480.00 L 0.00 480.00 L 0.00 240.00 ZM 335.00 470.97 C343.52,469.87 358.51,466.31 361.50,464.68 C362.60,464.09 363.97,463.52 364.54,463.42 C367.06,462.98 377.08,458.26 383.35,454.55 C409.97,438.82 425.89,412.50 428.64,379.72 C429.83,365.45 424.60,340.48 417.03,324.33 C412.07,313.74 408.51,308.66 400.42,300.61 C392.10,292.33 384.93,287.96 372.95,283.87 C364.17,280.87 362.58,280.65 350.50,280.68 C332.40,280.74 318.88,283.96 302.83,292.03 C276.56,305.25 259.09,330.98 259.02,356.56 C258.98,369.32 265.53,387.88 274.52,400.48 C278.92,406.65 289.39,416.86 293.89,419.38 C302.07,423.96 304.56,425.10 310.64,426.99 C322.41,430.67 338.55,429.48 348.49,424.21 C350.14,423.33 351.99,422.52 352.59,422.42 C354.98,421.99 361.82,416.97 367.62,411.38 C378.24,401.13 384.78,384.49 383.69,370.50 C383.39,366.65 382.22,360.54 381.09,356.93 C378.71,349.33 372.05,338.87 367.58,335.73 C365.89,334.53 363.63,332.76 362.56,331.78 C360.12,329.54 351.10,326.14 344.25,324.87 C332.30,322.66 316.10,329.04 309.09,338.72 C305.83,343.21 301.98,354.48 302.03,359.36 C302.08,364.02 305.13,372.00 308.51,376.33 C313.68,382.94 324.59,387.24 330.51,385.01 C334.23,383.60 340.00,378.14 340.00,376.03 C340.00,373.06 337.07,370.25 332.78,369.12 C325.18,367.11 322.42,363.36 323.45,356.46 C324.89,346.87 331.42,342.49 343.15,343.25 C350.51,343.72 356.68,348.20 360.41,355.77 C364.08,363.24 364.09,373.91 360.43,381.14 C356.64,388.61 345.77,399.00 337.46,403.09 C330.98,406.28 329.90,406.50 320.50,406.50 C311.21,406.50 309.97,406.26 303.91,403.28 C288.36,395.62 279.30,380.50 278.27,360.49 C277.67,348.72 278.94,341.44 283.04,333.24 C292.89,313.52 312.56,303.52 341.50,303.52 C355.52,303.51 361.53,304.78 372.50,310.04 C392.11,319.45 403.41,339.96 404.70,368.50 C405.56,387.40 402.00,401.61 393.38,413.73 C377.30,436.36 350.21,448.10 317.36,446.67 C293.88,445.65 278.50,439.83 264.27,426.58 C253.04,416.11 246.52,405.03 242.22,389.09 C239.91,380.54 239.63,377.60 239.59,362.00 C239.55,348.10 239.93,342.96 241.42,337.00 C244.07,326.44 248.47,315.25 252.68,308.38 C254.66,305.14 256.93,301.26 257.72,299.75 C259.68,295.98 274.48,281.08 280.00,277.32 C301.68,262.53 318.56,259.73 360.50,263.95 C372.05,265.11 389.15,266.34 398.51,266.68 C414.10,267.24 415.64,267.14 417.01,265.50 C418.18,264.08 418.57,259.77 418.83,245.14 C419.02,234.93 418.87,224.63 418.51,222.24 C417.54,215.77 416.13,215.43 397.82,217.35 C355.80,221.75 325.96,221.98 311.50,218.03 C299.98,214.88 290.47,210.69 281.42,204.78 C272.99,199.28 259.44,186.25 254.53,178.93 C252.90,176.49 250.28,172.81 248.70,170.75 C247.12,168.69 246.07,167.00 246.35,167.00 C246.64,167.00 245.35,163.71 243.49,159.68 C236.96,145.55 235.49,137.74 235.56,117.50 C235.62,102.17 235.96,98.31 237.83,91.50 C246.34,60.56 267.10,41.63 298.72,35.98 C309.98,33.97 335.16,35.22 346.51,38.35 C365.55,43.60 379.74,52.06 390.04,64.29 C401.51,77.90 405.35,89.25 405.35,109.50 C405.36,123.98 403.94,131.48 398.92,143.55 C391.56,161.22 381.50,171.92 367.23,177.27 C362.21,179.15 359.52,179.41 345.50,179.35 C318.62,179.25 304.48,174.38 289.91,160.23 C285.59,156.03 282.25,152.42 282.47,152.19 C282.70,151.97 281.87,150.14 280.62,148.14 C275.61,140.10 273.04,124.38 274.93,113.39 C276.56,103.93 279.94,97.00 286.11,90.48 C296.72,79.26 307.39,75.50 326.47,76.25 C339.69,76.77 342.68,77.67 350.17,83.40 C353.28,85.77 355.78,88.90 357.67,92.73 C360.25,97.99 360.49,99.43 360.44,109.00 C360.37,121.42 358.13,127.84 351.94,133.44 C347.55,137.41 343.27,138.48 334.93,137.73 C324.12,136.75 318.77,131.13 318.77,120.75 C318.77,115.00 322.03,110.13 327.73,107.34 C332.84,104.84 333.25,101.75 328.82,98.96 C321.96,94.65 308.65,99.12 302.67,107.75 C299.42,112.46 297.00,119.23 297.00,123.65 C297.00,127.90 300.23,137.25 303.23,141.65 C307.74,148.28 319.93,155.05 331.84,157.53 C354.09,162.17 374.50,149.28 381.59,126.10 C387.72,106.06 383.24,87.17 369.01,73.00 C361.41,65.44 359.13,63.67 353.00,60.56 C334.58,51.22 314.74,50.61 296.77,58.83 C269.40,71.36 250.50,107.04 256.95,134.00 C264.83,166.92 291.31,191.08 331.00,201.58 C341.44,204.34 358.27,203.91 369.50,200.59 C379.41,197.67 386.45,194.39 391.75,190.22 C415.40,171.66 430.96,140.18 430.99,110.86 C431.01,90.23 422.00,65.27 409.29,50.75 C407.48,48.68 406.00,46.60 406.00,46.13 C406.00,45.35 402.69,42.49 388.72,31.16 C380.05,24.13 361.51,16.64 342.00,12.29 C331.39,9.92 308.12,9.47 297.50,11.42 C271.27,16.26 248.96,29.26 231.96,49.62 C228.40,53.87 223.86,59.17 221.86,61.39 L 218.21 65.42 L 214.34 61.96 C212.21,60.06 208.67,56.06 206.48,53.08 C198.33,41.99 184.74,30.46 172.50,24.27 C166.69,21.32 151.59,16.31 143.28,14.56 C129.92,11.75 118.77,11.55 105.13,13.88 C55.39,22.39 25.20,49.85 16.01,94.94 C10.23,123.33 17.74,158.05 34.65,181.12 C43.77,193.56 54.70,200.94 69.97,204.98 C77.35,206.93 80.14,207.15 91.47,206.72 C110.78,205.97 127.21,201.17 141.55,192.07 C146.84,188.72 163.00,175.19 163.00,174.11 C163.00,173.76 164.86,171.22 167.14,168.48 C174.33,159.84 181.11,143.33 182.52,131.00 C183.28,124.42 180.37,109.06 176.93,101.50 C175.69,98.75 174.61,96.28 174.54,96.00 C174.08,94.14 170.04,87.63 166.44,82.94 C155.42,68.57 141.21,59.51 124.83,56.38 C116.36,54.76 115.92,54.77 106.56,56.93 C92.96,60.08 84.04,64.80 75.44,73.42 C63.96,84.94 58.98,96.14 58.23,112.20 C57.50,127.70 62.04,140.01 72.18,149.99 C78.30,156.01 90.04,161.94 97.35,162.70 C112.47,164.26 128.67,154.14 134.24,139.67 C136.84,132.92 137.00,123.12 134.62,116.18 C131.55,107.23 119.72,99.52 109.60,99.86 C100.66,100.17 100.82,104.31 110.10,112.92 C116.63,118.96 117.25,119.89 117.74,124.29 C119.48,140.03 99.67,149.01 86.90,138.26 C81.45,133.68 79.02,126.93 79.01,116.36 C79.00,103.78 81.64,95.37 87.62,88.98 C94.18,81.96 100.02,79.77 113.58,79.21 C129.82,78.55 139.49,81.70 149.26,90.84 C159.95,100.83 164.00,110.30 164.00,125.29 C164.00,152.08 146.94,173.92 121.00,180.35 C112.81,182.38 91.96,184.24 86.01,183.47 C68.17,181.16 59.57,176.32 50.63,163.53 C36.56,143.41 32.82,110.07 41.92,85.91 C50.87,62.15 71.71,46.23 102.08,39.96 C115.89,37.10 139.72,37.60 150.00,40.96 C163.19,45.27 170.97,49.92 180.13,58.97 C187.69,66.44 189.39,68.80 193.80,78.00 C200.60,92.16 202.17,99.79 202.22,119.00 C202.27,135.92 201.29,143.31 197.34,155.50 C192.11,171.69 184.71,184.12 173.02,196.38 C160.15,209.87 148.82,217.19 133.50,221.94 C123.35,225.08 111.46,225.47 70.61,224.02 C50.64,223.31 32.18,223.05 29.57,223.44 C25.33,224.07 24.67,224.53 23.27,227.82 C21.32,232.43 21.12,249.78 22.95,256.32 C25.26,264.56 24.46,264.38 52.70,263.13 C100.82,261.01 124.48,262.93 141.24,270.34 C165.27,280.97 187.87,308.33 194.90,335.30 C196.01,339.59 197.48,348.66 198.15,355.46 C201.02,384.39 193.46,409.74 177.16,425.80 C168.68,434.15 162.58,438.01 151.46,442.05 C142.94,445.15 141.65,445.33 125.12,445.77 C100.80,446.42 88.52,444.19 72.50,436.24 C49.30,424.72 37.58,409.34 33.85,385.50 C30.68,365.23 37.55,335.79 48.61,322.30 C55.51,313.88 66.32,307.61 78.50,304.96 C81.25,304.36 89.57,303.80 97.00,303.71 C109.75,303.56 111.00,303.73 119.55,306.69 C131.72,310.91 139.59,315.71 146.39,323.06 C156.36,333.83 161.00,345.89 161.00,361.05 C161.00,374.74 157.32,384.08 147.87,394.40 C140.65,402.28 134.06,405.70 124.34,406.61 C110.39,407.90 100.32,403.99 89.80,393.17 C82.20,385.36 78.72,378.17 78.79,370.43 C78.91,356.79 90.47,345.00 103.71,345.00 C108.37,345.00 109.49,345.42 112.76,348.42 C116.12,351.50 116.50,352.35 116.50,356.82 C116.50,362.56 114.72,365.09 108.50,368.22 C100.51,372.24 99.38,374.82 102.99,380.75 C104.68,383.52 105.54,384.00 108.88,384.00 C115.08,384.00 125.41,380.32 130.18,376.43 C135.44,372.12 140.00,364.10 140.00,359.14 C140.00,349.72 129.33,336.12 116.86,329.64 C103.67,322.78 93.24,322.65 80.00,329.17 C67.18,335.48 58.62,347.44 55.24,363.78 C53.66,371.42 53.66,372.55 55.16,379.83 C58.58,396.35 66.96,408.98 80.78,418.42 C102.36,433.17 129.01,432.11 149.97,415.68 C175.68,395.53 185.00,367.51 175.43,339.17 C168.69,319.21 148.85,299.11 125.27,288.36 C115.47,283.90 106.19,281.38 94.16,279.92 C85.72,278.90 83.25,278.97 75.95,280.44 C54.08,284.86 39.00,295.79 26.66,316.19 C1.80,357.28 2.14,399.30 27.58,431.12 C34.23,439.43 41.21,445.41 51.75,451.80 C87.41,473.42 131.84,476.86 165.61,460.61 C183.15,452.16 196.72,440.04 208.23,422.50 C216.38,410.08 218.19,408.31 221.30,409.73 C222.56,410.30 227.16,416.11 231.52,422.64 C246.53,445.09 262.38,457.50 286.31,465.50 C303.57,471.28 319.10,473.02 335.00,470.97 ZM 202.21 281.44 C188.26,277.69 176.29,268.50 171.52,257.87 C168.08,250.19 167.61,239.41 170.37,231.28 C173.95,220.74 186.36,210.98 199.80,208.13 C206.56,206.69 224.32,206.67 231.20,208.10 C245.88,211.14 259.51,221.78 264.01,233.72 C267.22,242.22 266.56,254.38 262.49,261.86 C257.56,270.90 247.17,278.52 235.50,281.64 C228.91,283.40 209.05,283.29 202.21,281.44 Z" fill="rgb(254,254,254)"/>
</g>
</svg>