<?xml version="1.0" encoding="UTF-8"?>
<svg version="1.1" xmlns="http://www.w3.org/2000/svg" width="436" height="480">
<path d="M0 0 C18.9635646 16.34589464 31.89528089 40.55795682 34.2890625 65.640625 C34.33289063 66.38054687 34.37671875 67.12046875 34.421875 67.8828125 C34.48632812 68.91148438 34.55078125 69.94015625 34.6171875 71 C35.11605959 86.46503466 31.82442612 101.80839983 25.421875 115.8828125 C24.96941406 116.89601562 24.51695312 117.90921875 24.05078125 118.953125 C18.67853505 130.33821044 11.12550448 139.85337871 2.421875 148.8828125 C1.83277344 149.50929687 1.24367188 150.13578125 0.63671875 150.78125 C-13.01138322 164.0394062 -32.88915444 168.55385983 -51.29663086 168.3515625 C-74.78371262 167.57197573 -95.34181633 158.17800009 -113.86328125 144.15234375 C-115.55958997 142.82009765 -115.55958997 142.82009765 -117.578125 141.8828125 C-137.578125 119.93159299 -137.578125 119.93159299 -137.578125 110.8828125 C-138.238125 110.5528125 -138.898125 110.2228125 -139.578125 109.8828125 C-144.70544035 93.95819438 -144.73748174 79.81030404 -139.578125 63.8828125 C-139.30097656 62.98820312 -139.02382813 62.09359375 -138.73828125 61.171875 C-132.53980144 43.51906152 -117.72405128 28.66138134 -101.203125 20.5703125 C-85.0367503 13.55723979 -69.15048578 13.0447295 -52.578125 18.8828125 C-45.10301757 21.91527271 -37.78929084 25.70684096 -31.578125 30.8828125 C-31.578125 31.5428125 -31.578125 32.2028125 -31.578125 32.8828125 C-30.72541016 33.21539062 -30.72541016 33.21539062 -29.85546875 33.5546875 C-20.56470808 38.97296988 -16.37437867 51.19579085 -13.578125 60.8828125 C-13.37960937 61.51703125 -13.18109375 62.15125 -12.9765625 62.8046875 C-10.13723207 77.61374428 -13.72763519 93.28914354 -22 105.78125 C-27.72369046 113.40339224 -35.60228729 119.86471898 -44.9140625 122.55859375 C-56.64797961 123.98662179 -67.56318717 123.36690776 -78.578125 118.8828125 C-79.31160156 118.60566406 -80.04507812 118.32851562 -80.80078125 118.04296875 C-88.80828958 114.58843732 -96.51696997 107.9622293 -99.90234375 99.84375 C-100.23685547 98.87308594 -100.23685547 98.87308594 -100.578125 97.8828125 C-100.81144531 97.23570312 -101.04476563 96.58859375 -101.28515625 95.921875 C-103.36488918 89.13255331 -102.72511638 82.21313678 -99.66015625 75.78125 C-93.00896756 64.1116554 -93.00896756 64.1116554 -87.578125 61.8828125 C-86.92585938 61.52703125 -86.27359375 61.17125 -85.6015625 60.8046875 C-81.03102715 58.72235865 -76.12315088 58.56214675 -71.265625 59.5703125 C-68.29782407 61.01970365 -66.55068998 62.22743656 -64.578125 64.8828125 C-64.203125 67.3125 -64.203125 67.3125 -64.578125 69.8828125 C-66.4765625 71.68359375 -66.4765625 71.68359375 -68.953125 73.1953125 C-69.76523437 73.70707031 -70.57734375 74.21882813 -71.4140625 74.74609375 C-73.578125 75.8828125 -73.578125 75.8828125 -75.578125 75.8828125 C-77.59190592 81.45032445 -78.07814344 86.08926302 -76.578125 91.8828125 C-74.14513351 95.96676251 -72.05330167 97.48890501 -67.578125 98.8828125 C-64.86407087 99.09693357 -62.28794765 99.20781168 -59.578125 99.1953125 C-58.87945312 99.21142578 -58.18078125 99.22753906 -57.4609375 99.24414062 C-52.95933602 99.24838742 -50.17174718 98.60106517 -46.578125 95.8828125 C-40.03671722 89.34140472 -39.30032848 81.64332814 -39.203125 72.8203125 C-39.18233887 71.68686401 -39.18233887 71.68686401 -39.16113281 70.53051758 C-39.23426844 61.68014426 -42.36840061 54.22841707 -48.578125 47.8828125 C-57.9810531 40.64274116 -70.13062427 40.00644881 -81.578125 40.8828125 C-94.36647687 42.91876902 -104.8824948 48.19767956 -113.578125 57.8828125 C-121.90713166 69.82564437 -123.09624616 83.06460459 -121.11328125 97.1953125 C-119.11919871 106.25717874 -115.30832545 114.42731411 -108.578125 120.8828125 C-107.7428125 122.0584375 -107.7428125 122.0584375 -106.890625 123.2578125 C-103.66737549 126.91663627 -99.82152448 129.49897225 -95.578125 131.8828125 C-94.918125 131.8828125 -94.258125 131.8828125 -93.578125 131.8828125 C-93.578125 132.5428125 -93.578125 133.2028125 -93.578125 133.8828125 C-79.97314991 138.61935938 -67.79782322 141.06958837 -53.390625 141.1328125 C-52.23498047 141.1534375 -51.07933594 141.1740625 -49.88867188 141.1953125 C-35.7104314 141.25899915 -24.07271154 138.03134736 -13.453125 128.3828125 C-4.63249008 118.99195472 0.04384706 107.10935895 3.421875 94.8828125 C3.79119141 93.58730469 3.79119141 93.58730469 4.16796875 92.265625 C5.65179721 85.85957938 5.62136528 79.364308 5.671875 72.8203125 C5.68130127 71.89790771 5.69072754 70.97550293 5.70043945 70.02514648 C5.61864778 52.70537308 -0.8723209 36.75045576 -12.828125 24.1328125 C-31.86028912 6.12595015 -59.32207353 -0.9644471 -84.92578125 -0.36328125 C-105.43446196 0.50255467 -125.13463524 6.69863096 -139.578125 21.8828125 C-140.238125 21.8828125 -140.898125 21.8828125 -141.578125 21.8828125 C-141.83980469 22.44871094 -142.10148438 23.01460937 -142.37109375 23.59765625 C-143.68040069 26.07644123 -145.21916742 28.19570107 -146.890625 30.4453125 C-150.57271229 35.67051521 -153.25716914 40.93536311 -155.578125 46.8828125 C-156.135 48.30980469 -156.135 48.30980469 -156.703125 49.765625 C-165.2926068 74.46038517 -162.62332216 102.406 -151.765625 125.8828125 C-140.30331711 149.49376166 -119.50515588 168.46961954 -94.7421875 177.296875 C-72.89897084 184.55278023 -49.70506048 183.52119443 -27.07250977 181.65600586 C-24.48698602 181.44295258 -21.90085146 181.23924396 -19.31445312 181.03710938 C-17.64058295 180.9041743 -15.96675315 180.7707296 -14.29296875 180.63671875 C-13.53451157 180.5762587 -12.77605438 180.51579865 -11.99461365 180.45350647 C-8.41600134 180.15754745 -4.85782698 179.80642826 -1.29663086 179.34399414 C1.39537418 179.01012259 3.93148701 178.75494878 6.6328125 178.75 C7.31988281 178.74871094 8.00695312 178.74742187 8.71484375 178.74609375 C9.40191406 178.74996094 10.08898437 178.75382813 10.796875 178.7578125 C11.50714844 178.75394531 12.21742188 178.75007812 12.94921875 178.74609375 C18.16824405 178.75599702 18.16824405 178.75599702 20.421875 179.8828125 C22.99798599 189.20714987 22.66272061 199.02257649 22.36523438 208.59741211 C22.29606293 210.97320417 22.26064852 213.34808346 22.2265625 215.72460938 C22.18692201 217.24744992 22.1453285 218.77024118 22.1015625 220.29296875 C22.09405975 220.99712418 22.08655701 221.7012796 22.0788269 222.42677307 C21.95214963 225.6136155 21.57739698 227.64409661 19.82495117 230.33398438 C16.49476508 232.48035241 14.24711703 232.34205996 10.29296875 232.25390625 C9.56121933 232.23935898 8.82946991 232.22481171 8.07554626 232.20982361 C-3.1422241 231.90037827 -14.3363336 230.87325683 -25.515625 229.9453125 C-27.81049879 229.76046976 -30.10542054 229.57622144 -32.40039062 229.39257812 C-49.82340442 227.98755604 -49.82340442 227.98755604 -58.4387207 227.08720398 C-80.85700268 224.94543684 -102.22973241 230.47989705 -119.98388672 244.55810547 C-129.78608302 252.70308512 -137.3772473 261.76843655 -143.578125 272.8828125 C-143.90538574 273.46708008 -144.23264648 274.05134766 -144.56982422 274.65332031 C-153.51404026 290.90818759 -156.97780728 307.25689227 -156.890625 325.6953125 C-156.88571045 326.92709229 -156.8807959 328.15887207 -156.87573242 329.42797852 C-156.58964683 351.64435834 -149.70759296 372.15207233 -134.171875 388.5390625 C-118.02669736 403.12807844 -98.34791523 408.32189109 -77.015625 408.2578125 C-76.3050293 408.25693634 -75.59443359 408.25606018 -74.86230469 408.25515747 C-51.69842671 408.16088132 -31.46924328 402.0424054 -13.890625 386.5078125 C-13.1275 385.6415625 -12.364375 384.7753125 -11.578125 383.8828125 C-10.96453125 383.21121094 -10.3509375 382.53960937 -9.71875 381.84765625 C1.82435318 368.5036554 6.10298264 351.28803577 5.65234375 333.90625 C5.28877145 329.13667434 4.41933629 324.55402205 3.421875 319.8828125 C3.30070312 319.09777344 3.17953125 318.31273437 3.0546875 317.50390625 C0.60775534 302.3479081 -6.25153321 289.17954874 -18.578125 279.8828125 C-19.23296875 279.36847656 -19.8878125 278.85414063 -20.5625 278.32421875 C-34.80389656 267.90305083 -54.74152609 266.94313885 -71.71484375 269.37890625 C-86.39544669 272.28872341 -100.47252237 278.4724164 -109.578125 290.8203125 C-118.44034366 304.67563484 -119.66436493 320.66699798 -116.9296875 336.6796875 C-113.33840515 348.282292 -106.42695006 358.0781579 -96.0703125 364.41796875 C-86.39089683 369.25767659 -74.81280587 369.52745579 -64.34765625 367.1484375 C-59.2978488 365.28436334 -55.52233746 362.56407746 -51.578125 358.8828125 C-51.01480469 358.44195312 -50.45148438 358.00109375 -49.87109375 357.546875 C-43.13999154 352.23824973 -38.08167438 345.45304399 -36.578125 336.8828125 C-35.78296905 329.55246858 -36.76899305 323.27059838 -40.578125 316.8828125 C-44.32976572 312.39246376 -48.58195744 309.01651062 -54.4296875 307.96484375 C-59.75579233 307.76148338 -64.77595596 308.53118572 -69.078125 311.7578125 C-71.60082183 315.33163301 -72.86818566 318.02476349 -72.890625 322.4453125 C-72.90738281 323.20972656 -72.92414063 323.97414063 -72.94140625 324.76171875 C-72.47662855 327.4754208 -71.78865381 328.26464762 -69.578125 329.8828125 C-67.06121419 330.73972128 -64.53940587 331.32947372 -61.953125 331.94140625 C-59.06540869 333.0860438 -58.09923874 334.20228308 -56.578125 336.8828125 C-56.390625 340.2578125 -56.390625 340.2578125 -57.578125 343.8828125 C-60.85729282 347.4398759 -64.35917986 349.49907051 -68.953125 350.9453125 C-76.97799906 350.8069526 -83.0087207 348.39648036 -88.8203125 342.85546875 C-95.3252766 335.55545349 -96.94537675 329.28383461 -96.85546875 319.59375 C-96.21213696 310.98578947 -92.7729467 302.96196326 -86.578125 296.8828125 C-76.12026346 288.5800055 -64.83621129 285.48722447 -51.578125 286.8828125 C-38.98589387 289.51402497 -29.16550511 296.61353964 -21.578125 306.8828125 C-13.77055169 318.97934609 -10.72626789 333.72287459 -13.71166992 347.71850586 C-16.44447156 359.40588255 -21.2970709 368.06456535 -29.625 376.7890625 C-31.72331822 378.92516282 -31.72331822 378.92516282 -33.578125 381.8828125 C-35.453125 382.98046875 -35.453125 382.98046875 -37.578125 383.9453125 C-40.12183337 385.10962019 -41.57169052 385.87637802 -43.578125 387.8828125 C-46.17728395 388.80881696 -48.75130565 389.65328167 -51.390625 390.4453125 C-52.10283203 390.66638672 -52.81503906 390.88746094 -53.54882812 391.11523438 C-69.50042765 395.99958169 -84.61492299 394.61695891 -99.828125 387.6953125 C-105.67684451 384.54675183 -110.56476237 380.19351486 -115.578125 375.8828125 C-116.722627 375.00607184 -117.86817134 374.13068657 -119.015625 373.2578125 C-121.45516649 370.99677405 -122.91546321 368.91744714 -124.4375 365.9765625 C-126.41449464 362.34755865 -128.79312118 358.96403876 -131.08984375 355.53125 C-132.56908891 352.89889247 -133.0277136 350.81491059 -133.578125 347.8828125 C-134.238125 347.5528125 -134.898125 347.2228125 -135.578125 346.8828125 C-136.36251199 344.31653505 -137.03303122 341.80357628 -137.640625 339.1953125 C-137.81400391 338.48697266 -137.98738281 337.77863281 -138.16601562 337.04882812 C-142.31847143 319.81852302 -140.84805971 303.28446582 -131.71875 287.7109375 C-129.74932316 284.70336318 -127.69988136 281.78456691 -125.578125 278.8828125 C-124.95292969 277.99851562 -124.32773437 277.11421875 -123.68359375 276.203125 C-120.57920532 271.9692532 -118.68464547 269.57048707 -113.578125 267.8828125 C-113.578125 267.2228125 -113.578125 266.5628125 -113.578125 265.8828125 C-96.26620479 250.25807095 -71.11466478 242.50028946 -48.203125 242.5703125 C-47.15640625 242.55419922 -46.1096875 242.53808594 -45.03125 242.52148438 C-26.48049366 242.51003329 -9.3479093 250.24078867 4.046875 262.9453125 C19.28333559 278.87631261 26.2586503 298.59795336 30.421875 319.8828125 C30.55996582 320.58325684 30.69805664 321.28370117 30.84033203 322.00537109 C35.53615452 346.99765139 29.05900392 371.73793089 15.421875 392.8828125 C-0.73101161 416.06824838 -26.36398181 429.41484444 -53.703125 434.6953125 C-82.49287839 439.71162835 -111.88686894 434.90968234 -136.578125 418.8828125 C-137.35671875 418.439375 -138.1353125 417.9959375 -138.9375 417.5390625 C-153.54427975 408.37741366 -163.94214669 394.83376611 -172.67504883 380.23681641 C-174.81639189 376.63019179 -174.81639189 376.63019179 -178.578125 374.8828125 C-181.48158313 377.61068353 -183.59280563 380.28577181 -185.640625 383.6953125 C-192.96866783 395.36705662 -200.12113123 405.89486864 -211.578125 413.8828125 C-212.11840332 414.26131348 -212.65868164 414.63981445 -213.21533203 415.02978516 C-229.86007213 426.56183889 -250.00596523 435.75043052 -270.578125 435.8828125 C-271.87878906 435.92019531 -273.17945313 435.95757812 -274.51953125 435.99609375 C-294.1859494 436.42986196 -313.84330554 433.26490596 -331.67016602 424.64794922 C-333.6995892 423.6967077 -333.6995892 423.6967077 -336.578125 423.8828125 C-336.578125 423.2228125 -336.578125 422.5628125 -336.578125 421.8828125 C-337.50625 421.5734375 -338.434375 421.2640625 -339.390625 420.9453125 C-341.453125 420.2578125 -343.515625 419.5703125 -345.578125 418.8828125 C-345.578125 418.2228125 -345.578125 417.5628125 -345.578125 416.8828125 C-346.238125 416.6765625 -346.898125 416.4703125 -347.578125 416.2578125 C-363.18924935 409.10271384 -375.143447 393.87889596 -382.578125 378.8828125 C-383.031875 378.00882812 -383.485625 377.13484375 -383.953125 376.234375 C-387.5055025 369.02389449 -389.20481168 361.77696319 -390.578125 353.8828125 C-390.71089844 353.15320313 -390.84367187 352.42359375 -390.98046875 351.671875 C-395.41019182 322.9090156 -383.2615903 292.77324446 -366.578125 269.8828125 C-363.8490871 266.30683181 -360.93180309 262.88955838 -357.578125 259.8828125 C-356.918125 259.8828125 -356.258125 259.8828125 -355.578125 259.8828125 C-355.578125 259.2228125 -355.578125 258.5628125 -355.578125 257.8828125 C-353.69400534 256.33601104 -351.83412491 254.94381785 -349.828125 253.5703125 C-348.9477356 252.9669104 -348.9477356 252.9669104 -348.04956055 252.35131836 C-331.72526214 241.48671015 -312.3893774 239.31360189 -293.328125 243.0078125 C-266.40606253 249.77787286 -242.00618149 264.5531853 -227.48046875 288.64453125 C-226.85269531 289.71316406 -226.22492188 290.78179687 -225.578125 291.8828125 C-225.14628906 292.59050781 -224.71445313 293.29820312 -224.26953125 294.02734375 C-216.54377025 307.82549277 -214.88354461 326.00637979 -218.80078125 341.1796875 C-223.3923163 356.39407198 -231.68643798 368.09840113 -243.640625 378.5078125 C-244.61708984 379.36246094 -244.61708984 379.36246094 -245.61328125 380.234375 C-257.18370569 389.94157006 -273.01723538 394.78685712 -288.04296875 394.26171875 C-303.11607688 392.64614804 -320.33235736 386.05326792 -330.16796875 373.921875 C-331.3355872 372.26351836 -332.46092253 370.57554351 -333.578125 368.8828125 C-334.238125 368.5528125 -334.898125 368.2228125 -335.578125 367.8828125 C-336.30888148 365.5687503 -336.97950758 363.23452381 -337.578125 360.8828125 C-338.238125 360.8828125 -338.898125 360.8828125 -339.578125 360.8828125 C-345.81351859 342.33769357 -347.34193343 327.50683982 -338.390625 309.3828125 C-337.7925 308.2278125 -337.194375 307.0728125 -336.578125 305.8828125 C-335.918125 305.8828125 -335.258125 305.8828125 -334.578125 305.8828125 C-334.330625 305.30402344 -334.083125 304.72523438 -333.828125 304.12890625 C-329.07122762 295.58135626 -318.82492165 290.32997219 -309.765625 287.5703125 C-296.43677701 284.80242673 -285.22640531 288.07006369 -273.93359375 295.1796875 C-265.43334703 301.32580287 -258.6506858 309.41890795 -256.578125 319.8828125 C-256.19002839 327.03487853 -258.02456977 332.39489139 -262.578125 337.8828125 C-269.80641652 345.82841539 -279.18456929 348.58882918 -289.70703125 349.109375 C-292.578125 348.8828125 -292.578125 348.8828125 -295.828125 346.8203125 C-297.76160514 343.57482798 -298.65704611 341.67102563 -298.578125 337.8828125 C-296.00190142 332.97571997 -291.41364044 330.81789354 -286.72265625 328.21484375 C-284.44971358 327.06251227 -284.44971358 327.06251227 -283.578125 324.8828125 C-283.06608043 318.0086583 -283.06608043 318.0086583 -285.578125 311.8828125 C-290.2499744 309.65422788 -294.67540707 309.58476368 -299.640625 310.8203125 C-306.3676404 313.20563056 -311.4983591 317.46760871 -315.015625 323.6953125 C-317.80133707 330.17865135 -318.46216844 336.30782835 -316.078125 343.0078125 C-314.08118989 347.46575918 -311.36397303 350.80824561 -307.96875 354.2890625 C-306.578125 355.8828125 -306.578125 355.8828125 -306.578125 357.8828125 C-306.01738281 358.1509375 -305.45664062 358.4190625 -304.87890625 358.6953125 C-301.56123816 360.40765732 -298.45750788 362.44282339 -295.30859375 364.4453125 C-286.28839409 369.19414436 -274.93886115 369.36339063 -265.12109375 367.078125 C-254.2115191 363.01679426 -247.6658544 355.43639959 -242.76635742 345.10107422 C-236.97167409 332.07133982 -237.21621349 316.97704057 -242.2890625 303.65625 C-249.38055884 288.39878817 -260.53378922 278.48565888 -276.125 272.52734375 C-294.1371785 266.77921766 -315.22145473 266.83334223 -332.578125 274.8828125 C-347.46428348 282.62845594 -354.90168536 295.82563229 -359.84545898 311.42504883 C-365.81620075 332.20845051 -364.21879684 354.49170596 -353.84765625 373.52734375 C-352.578125 375.8828125 -352.578125 375.8828125 -351.578125 378.8828125 C-350.588125 379.2128125 -349.598125 379.5428125 -348.578125 379.8828125 C-346.88724278 381.86238192 -345.21982028 383.86226446 -343.578125 385.8828125 C-342.918125 386.2128125 -342.258125 386.5428125 -341.578125 386.8828125 C-341.578125 387.5428125 -341.578125 388.2028125 -341.578125 388.8828125 C-341.07023437 389.12386719 -340.56234375 389.36492187 -340.0390625 389.61328125 C-337.38360028 390.98316255 -334.82417772 392.49246593 -332.24853516 394.00561523 C-308.48233847 407.82904283 -279.53420109 411.73309277 -252.578125 405.8828125 C-239.83641304 402.29796021 -227.01911335 396.44020026 -218.578125 385.8828125 C-217.87359823 384.56909097 -217.19587665 383.23950153 -216.578125 381.8828125 C-215.918125 381.8828125 -215.258125 381.8828125 -214.578125 381.8828125 C-214.30742187 381.16867187 -214.03671875 380.45453125 -213.7578125 379.71875 C-212.56992899 376.86310951 -211.17340966 374.22745822 -209.703125 371.5078125 C-197.91003056 348.18112937 -198.88568413 318.38731565 -206.265625 293.8203125 C-208.56062442 287.36562663 -211.7207904 281.32363609 -214.87109375 275.25390625 C-216.578125 271.8828125 -216.578125 271.8828125 -217.578125 268.8828125 C-218.238125 268.8828125 -218.898125 268.8828125 -219.578125 268.8828125 C-220.62143322 267.24290831 -221.61304939 265.56994226 -222.578125 263.8828125 C-231.27522437 251.55712201 -242.93557227 242.278408 -256.578125 235.8828125 C-257.77115234 235.31820312 -257.77115234 235.31820312 -258.98828125 234.7421875 C-272.98822153 228.64140052 -288.21377209 227.71985365 -303.28125 227.75 C-304.90253815 227.74856491 -304.90253815 227.74856491 -306.55657959 227.74710083 C-308.82889871 227.74642475 -311.10121982 227.7482388 -313.37353516 227.75244141 C-316.80505843 227.75777664 -320.23644959 227.75248758 -323.66796875 227.74609375 C-333.99546152 227.74314274 -344.25738546 227.79901979 -354.55517578 228.65014648 C-368.87836352 229.75255304 -368.87836352 229.75255304 -374.578125 226.8828125 C-378.08121403 220.57725224 -377.78639068 213.02961221 -377.828125 206.0078125 C-377.84875 205.14800781 -377.869375 204.28820312 -377.890625 203.40234375 C-377.92620287 197.54089028 -377.12069926 193.1937036 -374.578125 187.8828125 C-363.71313939 180.63948876 -341.22480504 185.27015896 -328.828125 185.8203125 C-309.63389606 186.67315727 -309.63389606 186.67315727 -290.42578125 187.01953125 C-289.2629361 187.02762062 -289.2629361 187.02762062 -288.07659912 187.03587341 C-270.84387742 186.99052664 -254.9887342 182.07373063 -240.75 172.30078125 C-238.578125 170.8828125 -238.578125 170.8828125 -235.578125 169.8828125 C-235.578125 169.2228125 -235.578125 168.5628125 -235.578125 167.8828125 C-230.10193452 162.8828125 -230.10193452 162.8828125 -227.578125 162.8828125 C-227.30742187 162.29371094 -227.03671875 161.70460937 -226.7578125 161.09765625 C-225.59286561 158.91048775 -224.34711285 157.28947503 -222.703125 155.4453125 C-201.23227515 131.2203484 -195.7184131 101.42903665 -197.578125 69.8828125 C-199.24516952 51.04591277 -207.4724559 35.26831796 -220.578125 21.8828125 C-221.09632813 21.32851563 -221.61453125 20.77421875 -222.1484375 20.203125 C-235.38381234 7.3835211 -256.1887398 3.06529525 -273.828125 2.5703125 C-298.05144556 3.04586235 -323.01892462 10.2593179 -340.46875 27.78125 C-357.27171054 46.2645066 -359.5226421 66.42627575 -358.76464844 90.49414062 C-357.95419246 105.2181314 -351.79887674 119.459783 -342.578125 130.8828125 C-342.578125 131.5428125 -342.578125 132.2028125 -342.578125 132.8828125 C-341.71767578 133.28693359 -341.71767578 133.28693359 -340.83984375 133.69921875 C-338.52702624 134.9095533 -336.51179209 136.30188142 -334.390625 137.8203125 C-319.59135434 147.80008383 -298.85844602 146.37944357 -281.98535156 143.36108398 C-269.99203962 140.92401937 -259.52689072 136.4439669 -250.578125 127.8828125 C-250.00707031 127.35171875 -249.43601563 126.820625 -248.84765625 126.2734375 C-239.60358373 116.67290974 -235.87037184 101.8316259 -235.203125 88.8203125 C-236.2089162 78.25950489 -238.37092359 69.56956622 -244.578125 60.8828125 C-245.155625 59.9959375 -245.733125 59.1090625 -246.328125 58.1953125 C-255.30788157 48.96611824 -265.29480274 44.80047005 -278.0012207 44.41235352 C-289.50439639 44.30191281 -300.32279773 44.68526914 -309.08203125 53.06640625 C-317.31276687 63.05933592 -318.16058415 75.04722799 -317.13671875 87.47265625 C-316.42417242 91.82267685 -315.13101934 94.341701 -312.578125 97.8828125 C-312.578125 98.5428125 -312.578125 99.2028125 -312.578125 99.8828125 C-312.000625 100.1715625 -311.423125 100.4603125 -310.828125 100.7578125 C-308.578125 101.8828125 -308.578125 101.8828125 -306.953125 102.9453125 C-303.46124837 104.32368485 -300.02054459 104.09262072 -296.328125 104.0078125 C-295.58304687 103.99878906 -294.83796875 103.98976562 -294.0703125 103.98046875 C-292.23944441 103.95699608 -290.40874262 103.92112775 -288.578125 103.8828125 C-288.578125 103.2228125 -288.578125 102.5628125 -288.578125 101.8828125 C-287.588125 101.8828125 -286.598125 101.8828125 -285.578125 101.8828125 C-282.74679385 96.62462608 -280.91038969 91.97474971 -281.91796875 85.89453125 C-283.96810997 79.64705949 -289.72195127 75.78147507 -294.94140625 72.2421875 C-296.578125 70.8828125 -296.578125 70.8828125 -297.578125 67.8828125 C-296.578125 64.8828125 -296.578125 64.8828125 -294.578125 63.1953125 C-289.7567668 61.08596829 -285.36451492 61.07572025 -280.3125 62.5390625 C-272.65240043 65.64595603 -265.35534874 69.98842515 -262.015625 77.8203125 C-259.16601882 87.35401796 -258.94257935 98.64736006 -263.33203125 107.71484375 C-263.74324219 108.43027344 -264.15445313 109.14570313 -264.578125 109.8828125 C-264.97902344 110.58792969 -265.37992187 111.29304687 -265.79296875 112.01953125 C-271.20607089 120.25686059 -280.21081776 125.334294 -289.69140625 127.51171875 C-302.07039157 129.10306328 -313.75240553 125.42790076 -323.578125 117.8828125 C-328.45258002 113.57351168 -332.2482389 110.01188225 -334.578125 103.8828125 C-335.238125 103.5528125 -335.898125 103.2228125 -336.578125 102.8828125 C-341.79855738 89.56280019 -342.89041977 77.04561798 -340.578125 62.8828125 C-339.918125 62.8828125 -339.258125 62.8828125 -338.578125 62.8828125 C-338.35125 61.6040625 -338.124375 60.3253125 -337.890625 59.0078125 C-336.69014599 53.49612422 -334.27018781 48.80456091 -331.578125 43.8828125 C-330.918125 43.8828125 -330.258125 43.8828125 -329.578125 43.8828125 C-329.32160156 43.30273438 -329.06507813 42.72265625 -328.80078125 42.125 C-324.87911958 34.93319872 -317.46755602 29.96997051 -310.578125 25.8828125 C-309.96582031 25.51414063 -309.35351562 25.14546875 -308.72265625 24.765625 C-294.39873328 16.88594029 -280.23699572 15.83793311 -264.91210938 20.15234375 C-244.79108538 26.44963494 -231.84554907 40.60512421 -222.0625 58.68359375 C-214.28765327 74.49088754 -211.39868321 92.45135007 -216.765625 109.4453125 C-217.63450443 111.96126379 -218.5865526 114.40939022 -219.578125 116.8828125 C-220.11953125 118.24792969 -220.11953125 118.24792969 -220.671875 119.640625 C-230.00851186 140.38129687 -249.82187835 156.54542051 -270.578125 164.8828125 C-276.15158149 166.8927615 -281.82757304 168.46962786 -287.578125 169.8828125 C-288.58230469 170.1303125 -289.58648437 170.3778125 -290.62109375 170.6328125 C-309.51199077 174.46960964 -330.38804106 172.5419372 -347.0234375 162.390625 C-360.34935344 153.54743308 -369.34819644 141.55328944 -375.578125 126.8828125 C-375.578125 126.2228125 -375.578125 125.5628125 -375.578125 124.8828125 C-376.238125 124.5528125 -376.898125 124.2228125 -377.578125 123.8828125 C-378.89558357 120.00362894 -379.578125 116.99905385 -379.578125 112.8828125 C-380.238125 112.5528125 -380.898125 112.2228125 -381.578125 111.8828125 C-381.97405621 109.03930654 -382.08662354 106.2179408 -382.234375 103.3515625 C-382.3478125 102.536875 -382.46125 101.7221875 -382.578125 100.8828125 C-383.238125 100.5528125 -383.898125 100.2228125 -384.578125 99.8828125 C-385.38889608 96.28788411 -385.40669863 92.55452611 -385.578125 88.8828125 C-385.61212402 88.20331543 -385.64612305 87.52381836 -385.68115234 86.82373047 C-386.43058016 69.72384196 -383.37160452 53.92400596 -377.62890625 37.8515625 C-376.8066561 35.52847657 -376.1135782 33.28352576 -375.578125 30.8828125 C-374.918125 30.8828125 -374.258125 30.8828125 -373.578125 30.8828125 C-373.32417969 30.17640625 -373.07023437 29.47 -372.80859375 28.7421875 C-370.48715628 23.34760899 -366.91477987 18.69079673 -363.578125 13.8828125 C-363.06507813 13.09261719 -362.55203125 12.30242188 -362.0234375 11.48828125 C-347.43877806 -9.48188971 -318.44674778 -19.25875176 -294.578125 -24.1171875 C-293.670625 -24.31183594 -292.763125 -24.50648437 -291.828125 -24.70703125 C-263.27009295 -28.31110981 -233.31794203 -21.76091162 -210.23046875 -4.23828125 C-202.58919705 1.87248536 -196.06980669 8.40591139 -189.91796875 15.99609375 C-186.90397176 19.71453077 -183.75628895 23.30474713 -180.578125 26.8828125 C-174.22262077 22.11618433 -169.49925323 16.06292578 -164.96484375 9.57421875 C-164.50722656 9.01605469 -164.04960937 8.45789062 -163.578125 7.8828125 C-162.918125 7.8828125 -162.258125 7.8828125 -161.578125 7.8828125 C-161.33320313 7.30789062 -161.08828125 6.73296875 -160.8359375 6.140625 C-152.32355293 -9.13936967 -127.35236092 -19.62825895 -111.453125 -24.4296875 C-73.15221461 -34.37853044 -30.57000711 -25.10446038 0 0 Z M-221.578125 185.8828125 C-227.99743162 194.01720104 -229.49750462 202.68207671 -228.578125 212.8828125 C-226.46437302 223.73577437 -220.28136276 231.08883551 -211.2890625 237.1640625 C-209.94714844 238.01484375 -209.94714844 238.01484375 -208.578125 238.8828125 C-207.93101562 239.305625 -207.28390625 239.7284375 -206.6171875 240.1640625 C-194.49525132 247.15137943 -176.75604021 247.69899862 -163.328125 244.7578125 C-151.51829476 241.3193041 -141.84663899 236.07263897 -135.703125 225.1953125 C-131.29948869 215.61776687 -131.94842603 205.58407378 -135.2890625 195.80078125 C-140.21554579 184.34331781 -150.5631657 178.41174224 -161.578125 173.8828125 C-181.91917622 167.553055 -206.42921504 169.62050827 -221.578125 185.8828125 Z " fill="#111111" transform="translate(397.578125,36.1171875)"/>
<path d="M0 0 C0.66 0.33 1.32 0.66 2 1 C-0.16116434 4.24174651 -1.72037695 5.04784342 -5 7 C-7.85192706 9.29738569 -8.89091987 10.26760483 -9.4375 13.9375 C-10.17698664 17.96359393 -12.1391847 19.1391847 -15 22 C-17.87780104 28.29298017 -18.671961 34.14191233 -19.1875 41 C-19.3102832 42.44826172 -19.3102832 42.44826172 -19.43554688 43.92578125 C-19.6339444 46.2832107 -19.8218573 48.64096843 -20 51 C-20.33 51 -20.66 51 -21 51 C-23.39729586 36.64862072 -19.5106278 24.5722468 -13 12 C-12.34 12 -11.68 12 -11 12 C-10.76539063 11.42765625 -10.53078125 10.8553125 -10.2890625 10.265625 C-8.70593415 7.48315699 -6.8008475 5.82929786 -4.375 3.75 C-3.55773437 3.04359375 -2.74046875 2.3371875 -1.8984375 1.609375 C-1.27195312 1.07828125 -0.64546875 0.5471875 0 0 Z " fill="#A4A4A4" transform="translate(74,330)"/>
<path d="M0 0 C0.66 0.33 1.32 0.66 2 1 C1.401875 1.556875 0.80375 2.11375 0.1875 2.6875 C-2.03101913 4.85712354 -2.03101913 4.85712354 -3.3125 7.25 C-7.10323364 13.42749186 -11.74893523 18.34084013 -18 22 C-16.43988817 18.5222507 -14.36827674 15.72775973 -12 12.75 C-11.29875 11.85796875 -10.5975 10.9659375 -9.875 10.046875 C-9.25625 9.37140625 -8.6375 8.6959375 -8 8 C-7.34 8 -6.68 8 -6 8 C-5.7525 7.4225 -5.505 6.845 -5.25 6.25 C-3.83316683 3.6997003 -2.12372463 1.98214299 0 0 Z " fill="#878787" transform="translate(242,36)"/>
<path d="M0 0 C0.66 1.32 1.32 2.64 2 4 C1.34 4 0.68 4 0 4 C0 4.66 0 5.32 0 6 C-1.65385233 7.34919532 -3.321702 8.68133728 -5 10 C-5.99 11.485 -5.99 11.485 -7 13 C-9.30144109 14.07136051 -11.6340213 15.07989717 -14 16 C-14.33 15.34 -14.66 14.68 -15 14 C-9.25 9 -9.25 9 -7 9 C-6.773125 8.443125 -6.54625 7.88625 -6.3125 7.3125 C-4.64103234 4.36753316 -2.44723648 2.31843456 0 0 Z " fill="#6C6C6C" transform="translate(177,190)"/>
<path d="M0 0 C0.99 0.33 1.98 0.66 3 1 C2.06725891 2.12894876 1.12859878 3.25300876 0.1875 4.375 C-0.33457031 5.00148438 -0.85664062 5.62796875 -1.39453125 6.2734375 C-3 8 -3 8 -6 10 C-5.34 10.66 -4.68 11.32 -4 12 C-7.96 13.98 -7.96 13.98 -12 16 C-9.67922784 9.2310812 -4.94519588 4.94519588 0 0 Z " fill="#6F6F6F" transform="translate(40,296)"/>
<path d="M0 0 C0.66 0.33 1.32 0.66 2 1 C0.38201759 3.00605938 -1.24376298 5.00476795 -2.875 7 C-3.33519531 7.57234375 -3.79539062 8.1446875 -4.26953125 8.734375 C-5.46849922 10.19398819 -6.73041545 11.6013757 -8 13 C-8.66 13 -9.32 13 -10 13 C-10 13.99 -10 14.98 -10 16 C-10.66 16.33 -11.32 16.66 -12 17 C-12.33 17.99 -12.66 18.98 -13 20 C-13.66 20 -14.32 20 -15 20 C-14.690625 19.236875 -14.38125 18.47375 -14.0625 17.6875 C-13.32106407 15.81210323 -12.63771783 13.91315348 -12 12 C-11.34 12 -10.68 12 -10 12 C-9.75507812 11.42765625 -9.51015625 10.8553125 -9.2578125 10.265625 C-7.78889901 7.61975598 -6.04651756 5.85146861 -3.875 3.75 C-3.15054688 3.04359375 -2.42609375 2.3371875 -1.6796875 1.609375 C-1.12539062 1.07828125 -0.57109375 0.5471875 0 0 Z " fill="#737373" transform="translate(78,68)"/>
<path d="M0 0 C1.28575654 3.90500943 0.31160215 5.90621246 -1.22119141 9.66796875 C-2.66481396 13.99069056 -2.84765762 18.47916096 -3.1875 23 C-3.3102832 24.44826172 -3.3102832 24.44826172 -3.43554688 25.92578125 C-3.6339444 28.2832107 -3.8218573 30.64096843 -4 33 C-4.33 33 -4.66 33 -5 33 C-6.91539383 21.53352071 -5.20082586 10.40165172 0 0 Z " fill="#AFAFAF" transform="translate(58,348)"/>
<path d="M0 0 C0.66 0.33 1.32 0.66 2 1 C-0.08906965 4.86038436 -2.35798817 7.46552611 -5.6875 10.3125 C-6.49574219 11.00988281 -7.30398438 11.70726562 -8.13671875 12.42578125 C-8.75160156 12.94527344 -9.36648438 13.46476562 -10 14 C-10 10.25805947 -8.98358659 9.3230581 -6.6875 6.4375 C-6.07261719 5.65246094 -5.45773437 4.86742187 -4.82421875 4.05859375 C-3 2 -3 2 0 0 Z " fill="#747474" transform="translate(282,304)"/>
<path d="M0 0 C0.66 0.33 1.32 0.66 2 1 C1.4225 1.515625 0.845 2.03125 0.25 2.5625 C-2.18778605 4.99892492 -2.18778605 4.99892492 -3.875 8.5 C-5.91825635 12.30045681 -8.28174144 13.88735309 -12 16 C-10.53809273 12.80707814 -8.73158625 10.19433866 -6.5625 7.4375 C-5.96566406 6.67308594 -5.36882812 5.90867187 -4.75390625 5.12109375 C-3.24800362 3.2999242 -1.70535708 1.63234485 0 0 Z " fill="#858585" transform="translate(279,68)"/>
<path d="M0 0 C-1.43025194 1.65213589 -2.86945545 3.29652589 -4.3125 4.9375 C-5.11300781 5.85402344 -5.91351563 6.77054687 -6.73828125 7.71484375 C-9 10 -9 10 -12 11 C-10.0118506 6.69234297 -7.87173883 2.26617627 -3.875 -0.4375 C-2 -1 -2 -1 0 0 Z " fill="#7E7E7E" transform="translate(312,99)"/>
<path d="M0 0 C-3.65646331 3.65646331 -9.36449726 4.79304546 -14.4375 5.19140625 C-16.2927611 5.18809328 -18.14759239 5.10291153 -20 5 C-20 4.67 -20 4.34 -20 4 C-19.19175781 3.80664062 -18.38351563 3.61328125 -17.55078125 3.4140625 C-16.48214844 3.15367187 -15.41351563 2.89328125 -14.3125 2.625 C-13.25675781 2.36976563 -12.20101562 2.11453125 -11.11328125 1.8515625 C-8.0204708 1.08293394 -8.0204708 1.08293394 -5.29296875 -0.1640625 C-3 -1 -3 -1 0 0 Z " fill="#9C9C9C" transform="translate(144,218)"/>
<path d="M0 0 C1.32 0.33 2.64 0.66 4 1 C0.7 3.97 -2.6 6.94 -6 10 C-6 6.41087588 -5.33563446 5.89142971 -3 3.3125 C-2.443125 2.68988281 -1.88625 2.06726562 -1.3125 1.42578125 C-0.879375 0.95527344 -0.44625 0.48476563 0 0 Z " fill="#696969" transform="translate(231,48)"/>
<path d="M0 0 C0 3.77910478 -0.99703962 4.46106101 -3.5 7.1875 C-4.1496875 7.90292969 -4.799375 8.61835938 -5.46875 9.35546875 C-5.9740625 9.89816406 -6.479375 10.44085938 -7 11 C-8.32 10.67 -9.64 10.34 -11 10 C-5.555 5.05 -5.555 5.05 0 0 Z " fill="#818181" transform="translate(151,160)"/>
<path d="M0 0 C-5.50243899 3.66829266 -11.60543766 3.12789125 -18 3 C-18 2.67 -18 2.34 -18 2 C-11.93184478 0.77100654 -6.20104812 -0.27560214 0 0 Z " fill="#B4B4B4" transform="translate(146,468)"/>
<path d="M0 0 C0.33 0.66 0.66 1.32 1 2 C-0.92333011 6.06036357 -3.40069448 8.37347975 -7 11 C-7.66 10.67 -8.32 10.34 -9 10 C-6.03 6.7 -3.06 3.4 0 0 Z " fill="#7C7C7C" transform="translate(356,385)"/>
<path d="M0 0 C1 2 1 2 0.3125 5.0625 C-0.120625 6.031875 -0.55375 7.00125 -1 8 C-3.0625 8.6875 -3.0625 8.6875 -5 9 C-5.33 9.99 -5.66 10.98 -6 12 C-6.33 11.34 -6.66 10.68 -7 10 C-6.67 9.34 -6.34 8.68 -6 8 C-5.34 8 -4.68 8 -4 8 C-3.71125 7.236875 -3.4225 6.47375 -3.125 5.6875 C-2 3 -2 3 0 0 Z " fill="#959595" transform="translate(187,410)"/>
<path d="M0 0 C0.33 0.66 0.66 1.32 1 2 C-0.64379791 6.67184669 -2.18479582 9.71103088 -6 13 C-4.75696561 7.82069003 -3.14512215 4.29833361 0 0 Z " fill="#848484" transform="translate(266,84)"/>
<path d="M0 0 C1.32 0.33 2.64 0.66 4 1 C3.8125 2.8125 3.8125 2.8125 3 5 C0.4375 6.75 0.4375 6.75 -2 8 C-1.47731534 5.23723823 -0.89130413 2.6739124 0 0 Z " fill="#626262" transform="translate(61,342)"/>
<path d="M0 0 C-1.56020867 0.65134925 -3.12328579 1.29582964 -4.6875 1.9375 C-5.55761719 2.29714844 -6.42773438 2.65679687 -7.32421875 3.02734375 C-9.88179265 3.9570312 -12.3221323 4.54162625 -15 5 C-12.86699672 2.63442627 -11.04050601 1.37032472 -8.0625 0.25 C-7.39347656 -0.01296875 -6.72445313 -0.2759375 -6.03515625 -0.546875 C-3.68352509 -1.07046274 -2.26382477 -0.74954377 0 0 Z " fill="#9B9B9B" transform="translate(332,325)"/>
<path d="M0 0 C0.66 0.33 1.32 0.66 2 1 C-1.3 4.3 -4.6 7.6 -8 11 C-8 6.42525809 -5.12443537 4.12443537 -2 1 C-1.34 0.67 -0.68 0.34 0 0 Z " fill="#A6A6A6" transform="translate(273,282)"/>
<path d="M0 0 C0 0.66 0 1.32 0 2 C-2.61373889 4.53906064 -4.12889581 5.92256852 -7.8125 6.25 C-8.534375 6.1675 -9.25625 6.085 -10 6 C-4.4 0 -4.4 0 0 0 Z " fill="#787878" transform="translate(68,24)"/>
<path d="M0 0 C0.12375 0.639375 0.2475 1.27875 0.375 1.9375 C0.684375 2.9584375 0.684375 2.9584375 1 4 C1.66 4.33 2.32 4.66 3 5 C2.360625 5.61875 1.72125 6.2375 1.0625 6.875 C-1.03883584 8.82597612 -1.03883584 8.82597612 -2 11 C-2.66 11 -3.32 11 -4 11 C-2.7874262 7.27566618 -1.49140021 3.62197194 0 0 Z " fill="#7C7C7C" transform="translate(157,376)"/>
<path d="M0 0 C0.66 0.33 1.32 0.66 2 1 C-2.81776765 8.66742597 -2.81776765 8.66742597 -8 10 C-7.04367001 8.70684939 -6.08486149 7.41553147 -5.125 6.125 C-4.59132813 5.40570313 -4.05765625 4.68640625 -3.5078125 3.9453125 C-2 2 -2 2 0 0 Z " fill="#434343" transform="translate(284,64)"/>
<path d="M0 0 C4.12989477 4.26311718 4.61271765 7.28758534 5 13 C2.31342365 10.31342365 1.34023957 7.53335886 0 4 C0 2.68 0 1.36 0 0 Z " fill="#A1A1A1" transform="translate(172,330)"/>
<path d="M0 0 C0.99 1.32 1.98 2.64 3 4 C-0.96 5.98 -0.96 5.98 -5 8 C-3.8141763 4.62496331 -2.72426311 2.35277269 0 0 Z " fill="#777777" transform="translate(33,304)"/>
<path d="M0 0 C0.33 0.99 0.66 1.98 1 3 C-3.296875 7.00390625 -3.296875 7.00390625 -5 8 C-7.203125 7.65234375 -7.203125 7.65234375 -9 7 C-8.43410156 6.66226562 -7.86820312 6.32453125 -7.28515625 5.9765625 C-6.55167969 5.53054688 -5.81820312 5.08453125 -5.0625 4.625 C-4.33160156 4.18414062 -3.60070312 3.74328125 -2.84765625 3.2890625 C-0.86227728 2.1226016 -0.86227728 2.1226016 0 0 Z " fill="#9D9D9D" transform="translate(114,361)"/>
<path d="M0 0 C0.66 0.33 1.32 0.66 2 1 C-1.32307692 5.8 -1.32307692 5.8 -4.75 6.8125 C-5.4925 6.874375 -6.235 6.93625 -7 7 C-4.66666667 4.66666667 -2.33333333 2.33333333 0 0 Z " fill="#868686" transform="translate(293,295)"/>
<path d="M0 0 C0.66 0.33 1.32 0.66 2 1 C0.68 2.65 -0.64 4.3 -2 6 C-3.32 5.67 -4.64 5.34 -6 5 C-4.02 3.35 -2.04 1.7 0 0 Z " fill="#757575" transform="translate(53,32)"/>
<path d="M0 0 C0.66 0.33 1.32 0.66 2 1 C0.35 2.98 -1.3 4.96 -3 7 C-3.99 6.67 -4.98 6.34 -6 6 C-4 4 -2 2 0 0 Z " fill="#808080" transform="translate(315,330)"/>
<path d="" fill="#FFFFFF" transform="translate(0,0)"/>
<path d="" fill="#FFFFFF" transform="translate(0,0)"/>
<path d="" fill="#FFFFFF" transform="translate(0,0)"/>
<path d="" fill="#FFFFFF" transform="translate(0,0)"/>
<path d="" fill="#FFFFFF" transform="translate(0,0)"/>
<path d="" fill="#FFFFFF" transform="translate(0,0)"/>
<path d="" fill="#FFFFFF" transform="translate(0,0)"/>
<path d="" fill="#FFFFFF" transform="translate(0,0)"/>
<path d="" fill="#FFFFFF" transform="translate(0,0)"/>
<path d="" fill="#FFFFFF" transform="translate(0,0)"/>
<path d="" fill="#FFFFFF" transform="translate(0,0)"/>
<path d="" fill="#FFFFFF" transform="translate(0,0)"/>
<path d="" fill="#FFFFFF" transform="translate(0,0)"/>
<path d="" fill="#FFFFFF" transform="translate(0,0)"/>
<path d="" fill="#FFFFFF" transform="translate(0,0)"/>
<path d="" fill="#FFFFFF" transform="translate(0,0)"/>
<path d="" fill="#FFFFFF" transform="translate(0,0)"/>
<path d="" fill="#FFFFFF" transform="translate(0,0)"/>
<path d="" fill="#FFFFFF" transform="translate(0,0)"/>
<path d="" fill="#FFFFFF" transform="translate(0,0)"/>
<path d="" fill="#FFFFFF" transform="translate(0,0)"/>
<path d="" fill="#FFFFFF" transform="translate(0,0)"/>
<path d="" fill="#FFFFFF" transform="translate(0,0)"/>
<path d="" fill="#FFFFFF" transform="translate(0,0)"/>
<path d="" fill="#FFFFFF" transform="translate(0,0)"/>
<path d="" fill="#FFFFFF" transform="translate(0,0)"/>
<path d="" fill="#FFFFFF" transform="translate(0,0)"/>
</svg>
