<svg xmlns="http://www.w3.org/2000/svg" width="500" height="500" viewBox="0 0 500 500">
<g>
<path d="M 328.34 492.97 C322.62,495.11 311.96,496.32 307.00,495.38 C302.81,494.59 298.73,492.85 293.64,489.68 C287.57,485.90 285.44,481.31 283.39,467.60 C281.66,456.04 278.99,449.11 275.16,446.27 C265.67,439.26 258.00,438.21 250.92,442.97 C246.16,446.18 244.00,448.71 229.40,468.22 C211.68,491.91 201.07,497.62 182.36,493.53 C163.76,489.47 146.88,477.37 142.16,464.73 C137.11,451.17 137.32,437.74 142.76,427.71 C145.69,422.31 149.06,420.01 168.51,410.17 C186.89,400.86 198.25,392.97 209.00,382.06 C220.13,370.77 226.00,361.22 228.98,349.57 C231.75,338.74 231.66,331.26 228.69,326.90 C226.54,323.72 226.04,323.50 220.94,323.55 C214.78,323.60 210.70,325.39 196.34,334.31 C191.31,337.44 183.21,341.92 178.34,344.25 C170.47,348.03 168.71,348.50 162.33,348.50 C156.63,348.50 154.58,348.07 152.37,346.42 C146.88,342.33 142.99,331.76 143.02,321.07 C143.08,305.88 152.86,297.59 185.00,285.48 C208.05,276.80 221.86,268.75 228.13,260.36 C234.06,252.41 235.39,249.10 235.45,242.16 C235.49,236.68 235.18,235.57 233.14,233.91 C228.75,230.36 222.32,231.40 204.27,238.62 C178.48,248.94 165.92,250.07 156.12,242.97 C146.88,236.28 140.22,216.44 143.93,206.68 C145.47,202.64 150.74,197.34 156.40,194.14 C163.23,190.29 170.06,188.06 193.85,181.90 C221.28,174.81 227.75,172.18 235.33,165.09 C240.53,160.22 242.00,157.05 241.98,150.80 C241.95,145.09 239.64,139.15 235.81,134.99 C224.00,122.15 205.91,120.60 182.00,130.38 C156.00,141.02 123.91,168.49 106.51,195.00 C88.23,222.85 70.85,269.85 63.62,311.00 C60.08,331.16 59.50,338.20 59.50,361.25 C59.50,386.13 58.88,389.30 55.68,380.75 C49.25,363.53 42.67,335.20 39.39,310.50 C37.23,294.26 36.93,256.38 38.83,240.50 C40.91,223.06 45.77,200.65 50.64,186.00 C55.89,170.23 66.83,147.48 73.96,137.50 C76.72,133.65 80.07,128.88 81.41,126.89 C85.72,120.50 102.36,104.69 111.80,98.00 C122.88,90.15 135.31,83.40 147.76,78.46 C152.85,76.44 157.23,74.44 157.50,74.01 C157.76,73.57 156.44,72.05 154.57,70.62 C146.97,64.83 143.47,51.18 146.39,38.75 C150.55,21.02 160.25,11.04 177.75,6.48 C188.99,3.55 199.20,5.13 208.50,11.24 C215.16,15.61 217.98,21.10 223.04,39.59 C227.63,56.40 229.61,60.88 234.79,66.25 C237.81,69.38 239.07,70.00 242.45,69.98 C251.99,69.93 258.85,63.92 268.85,46.86 C274.77,36.77 276.20,35.04 281.66,31.37 C289.19,26.32 297.75,23.33 308.98,21.84 C320.26,20.35 331.17,22.43 342.26,28.20 C368.65,41.92 370.09,70.50 345.72,96.56 C341.33,101.24 331.16,110.84 323.12,117.88 C293.95,143.41 284.45,155.26 280.36,171.24 C277.68,181.69 279.88,193.26 285.07,196.04 C288.41,197.83 292.31,196.27 304.21,188.38 C319.90,177.99 326.84,174.82 335.21,174.22 C343.42,173.63 349.45,175.60 355.15,180.75 C359.82,184.97 362.00,191.47 362.00,201.15 C362.00,209.34 359.84,214.08 353.02,220.86 C346.36,227.47 337.60,231.99 312.00,241.97 C299.62,246.80 287.02,251.87 284.00,253.23 C277.37,256.21 268.22,264.22 266.36,268.69 C263.64,275.20 265.30,289.57 269.63,296.99 C271.80,300.70 277.59,304.00 281.94,304.00 C287.18,304.00 297.75,299.29 313.69,289.85 C332.80,278.54 339.63,275.63 347.20,275.58 C354.05,275.52 357.29,277.55 360.80,284.08 C362.91,287.99 363.13,289.44 362.71,296.62 C361.61,315.45 351.09,325.70 320.89,337.34 C296.85,346.61 290.99,351.37 291.01,361.65 C291.02,370.74 294.68,376.97 302.83,381.74 C306.75,384.04 308.55,384.44 314.75,384.39 C321.35,384.33 322.92,383.89 331.27,379.72 C342.23,374.25 353.59,365.37 364.91,353.42 C381.65,335.73 397.98,310.29 409.22,284.41 C417.52,265.27 418.50,262.64 422.40,249.08 C429.43,224.63 430.48,216.59 430.45,187.50 C430.43,163.14 430.26,160.71 427.75,148.94 C424.48,133.62 420.26,120.48 415.03,109.33 C412.79,104.55 411.36,100.22 411.72,99.30 C412.17,98.12 411.97,97.90 411.02,98.49 C410.11,99.05 409.93,98.92 410.44,98.10 C411.50,96.38 412.11,96.81 417.97,103.50 C428.55,115.57 439.19,133.09 446.84,151.02 C462.16,186.95 467.15,239.71 459.33,283.00 C458.48,287.67 457.40,293.71 456.93,296.42 C453.99,313.18 443.36,340.15 432.72,357.84 C416.11,385.43 397.36,404.92 374.60,418.25 C367.52,422.39 349.49,430.72 346.22,431.36 C345.28,431.54 343.25,432.21 341.71,432.84 L 338.92 433.98 L 341.15 436.99 C342.37,438.65 343.66,440.00 344.01,440.00 C345.06,440.00 348.78,448.16 350.04,453.21 C350.69,455.80 351.05,461.50 350.85,465.88 C350.54,472.79 350.10,474.40 347.48,478.12 C343.23,484.17 335.18,490.41 328.34,492.97 Z" fill="rgb(0,0,0)"/>
<path d="M 60.29 334.40 C59.31,349.35 59.21,380.04 60.34,385.75 C61.62,392.24 59.67,390.91 56.72,383.29 C59.02,388.24 59.50,383.17 59.50,361.25 C59.50,349.38 59.65,341.76 60.29,334.40 ZM 422.50 128.75 C420.03,120.98 417.13,113.77 413.46,106.13 C410.46,99.87 408.00,94.58 408.00,94.38 C408.00,92.63 412.48,96.97 417.87,103.38 C412.10,96.80 411.50,96.39 410.44,98.10 C409.93,98.92 410.11,99.05 411.02,98.49 C411.97,97.90 412.17,98.12 411.72,99.30 C411.36,100.22 412.79,104.55 415.03,109.33 C417.80,115.24 420.29,121.70 422.50,128.75 ZM 75.47 263.81 C69.44,283.02 64.63,303.63 61.42,324.55 C61.98,320.58 62.70,316.23 63.62,311.00 C66.32,295.65 70.43,279.49 75.47,263.81 ZM 432.55 123.51 C438.00,132.17 442.51,140.87 446.84,151.02 C442.77,141.48 437.86,132.06 432.55,123.51 ZM 47.60 353.65 C44.20,340.03 41.33,325.06 39.39,310.50 C41.27,324.61 44.22,339.91 47.60,353.65 Z" fill="rgb(12,12,12)"/>
<path d="M 0.00 250.00 L 0.00 0.00 L 250.00 0.00 L 500.00 0.00 L 500.00 250.00 L 500.00 500.00 L 250.00 500.00 L 0.00 500.00 L 0.00 250.00 ZM 328.34 492.97 C335.18,490.41 343.23,484.17 347.48,478.12 C350.10,474.40 350.54,472.79 350.85,465.88 C351.05,461.50 350.69,455.80 350.04,453.21 C348.78,448.16 345.06,440.00 344.01,440.00 C343.66,440.00 342.37,438.65 341.15,436.99 L 338.92 433.98 L 341.71 432.84 C343.25,432.21 345.28,431.54 346.22,431.36 C349.49,430.72 367.52,422.39 374.60,418.25 C397.36,404.92 416.11,385.43 432.72,357.84 C443.36,340.15 453.99,313.18 456.93,296.42 C457.40,293.71 458.48,287.67 459.33,283.00 C467.15,239.71 462.16,186.95 446.84,151.02 C441.59,138.72 436.09,128.55 428.95,118.00 C420.62,105.66 408.00,91.44 408.00,94.38 C408.00,94.58 410.46,99.87 413.46,106.13 C420.06,119.88 424.18,132.22 427.75,148.94 C430.26,160.71 430.43,163.14 430.45,187.50 C430.48,216.59 429.43,224.63 422.40,249.08 C418.50,262.64 417.52,265.27 409.22,284.41 C397.98,310.29 381.65,335.73 364.91,353.42 C353.59,365.37 342.23,374.25 331.27,379.72 C322.92,383.89 321.35,384.33 314.75,384.39 C308.55,384.44 306.75,384.04 302.83,381.74 C294.68,376.97 291.02,370.74 291.01,361.65 C290.99,351.37 296.85,346.61 320.89,337.34 C351.09,325.70 361.61,315.45 362.71,296.62 C363.13,289.44 362.91,287.99 360.80,284.08 C357.29,277.55 354.05,275.52 347.20,275.58 C339.63,275.63 332.80,278.54 313.69,289.85 C297.75,299.29 287.18,304.00 281.94,304.00 C277.59,304.00 271.80,300.70 269.63,296.99 C265.30,289.57 263.64,275.20 266.36,268.69 C268.22,264.22 277.37,256.21 284.00,253.23 C287.02,251.87 299.62,246.80 312.00,241.97 C337.60,231.99 346.36,227.47 353.02,220.86 C359.84,214.08 362.00,209.34 362.00,201.15 C362.00,191.47 359.82,184.97 355.15,180.75 C349.45,175.60 343.42,173.63 335.21,174.22 C326.84,174.82 319.90,177.99 304.21,188.38 C292.31,196.27 288.41,197.83 285.07,196.04 C279.88,193.26 277.68,181.69 280.36,171.24 C284.45,155.26 293.95,143.41 323.12,117.88 C331.16,110.84 341.33,101.24 345.72,96.56 C370.09,70.50 368.65,41.92 342.26,28.20 C331.17,22.43 320.26,20.35 308.98,21.84 C297.75,23.33 289.19,26.32 281.66,31.37 C276.20,35.04 274.77,36.77 268.85,46.86 C258.85,63.92 251.99,69.93 242.45,69.98 C239.07,70.00 237.81,69.38 234.79,66.25 C229.61,60.88 227.63,56.40 223.04,39.59 C217.98,21.10 215.16,15.61 208.50,11.24 C199.20,5.13 188.99,3.55 177.75,6.48 C160.25,11.04 150.55,21.02 146.39,38.75 C143.47,51.18 146.97,64.83 154.57,70.62 C156.44,72.05 157.76,73.57 157.50,74.01 C157.23,74.44 152.85,76.44 147.76,78.46 C135.31,83.40 122.88,90.15 111.80,98.00 C102.36,104.69 85.72,120.50 81.41,126.89 C80.07,128.88 76.72,133.65 73.96,137.50 C66.83,147.48 55.89,170.23 50.64,186.00 C45.77,200.65 40.91,223.06 38.83,240.50 C36.93,256.38 37.23,294.26 39.39,310.50 C42.90,336.90 49.50,364.65 56.70,383.25 C59.67,390.91 61.62,392.25 60.34,385.75 C59.03,379.11 59.38,338.61 60.83,328.50 C68.21,277.21 85.26,227.37 106.51,195.00 C123.91,168.49 156.00,141.02 182.00,130.38 C205.91,120.60 224.00,122.15 235.81,134.99 C239.64,139.15 241.95,145.09 241.98,150.80 C242.00,157.05 240.53,160.22 235.33,165.09 C227.75,172.18 221.28,174.81 193.85,181.90 C170.06,188.06 163.23,190.29 156.40,194.14 C150.74,197.34 145.47,202.64 143.93,206.68 C140.22,216.44 146.88,236.28 156.12,242.97 C165.92,250.07 178.48,248.94 204.27,238.62 C222.32,231.40 228.75,230.36 233.14,233.91 C235.18,235.57 235.49,236.68 235.45,242.16 C235.39,249.10 234.06,252.41 228.13,260.36 C221.86,268.75 208.05,276.80 185.00,285.48 C152.86,297.59 143.08,305.88 143.02,321.07 C142.99,331.76 146.88,342.33 152.37,346.42 C154.58,348.07 156.63,348.50 162.33,348.50 C168.71,348.50 170.47,348.03 178.34,344.25 C183.21,341.92 191.31,337.44 196.34,334.31 C210.70,325.39 214.78,323.60 220.94,323.55 C226.04,323.50 226.54,323.72 228.69,326.90 C231.66,331.26 231.75,338.74 228.98,349.57 C226.00,361.22 220.13,370.77 209.00,382.06 C198.25,392.97 186.89,400.86 168.51,410.17 C149.06,420.01 145.69,422.31 142.76,427.71 C137.32,437.74 137.11,451.17 142.16,464.73 C146.88,477.37 163.76,489.47 182.36,493.53 C201.07,497.62 211.68,491.91 229.40,468.22 C244.00,448.71 246.16,446.18 250.92,442.97 C258.00,438.21 265.67,439.26 275.16,446.27 C278.99,449.11 281.66,456.04 283.39,467.60 C285.44,481.31 287.57,485.90 293.64,489.68 C298.73,492.85 302.81,494.59 307.00,495.38 C311.96,496.32 322.62,495.11 328.34,492.97 Z" fill="rgb(254,254,254)"/>
</g>
</svg>