<?xml version="1.0" encoding="UTF-8"?>
<svg version="1.1" xmlns="http://www.w3.org/2000/svg" width="500" height="500">
<path d="M0 0 C9.00122749 7.9943442 11.02480798 20.35963523 13.9609375 31.53125 C17.78388167 45.8098007 17.78388167 45.8098007 27.05078125 56.93359375 C30.10080353 58.4066506 32.44904613 58.31832006 35.734375 57.67578125 C46.70725779 53.79743475 52.21022688 42.82289744 57.66577148 33.33032227 C65.09165651 20.57286172 75.88269938 14.68605648 90 10.875 C104.15856125 7.32941071 120.77230508 9.56950328 133.4375 16.625 C142.58136019 22.68546548 148.35753191 30.08008204 152.3125 40.25 C155.04265504 54.64536293 151.07129738 66.9385743 143 78.875 C135.43639104 89.47684511 126.11341151 98.33480401 115.9609375 106.421875 C111.81614413 109.8558199 107.91221854 113.52559996 103.9921875 117.21166992 C100.94832524 120.07244589 97.88297913 122.86989507 94.6875 125.5625 C81.9767334 136.64715574 71.44282948 150.97740108 69.66015625 168.1484375 C69.48788259 173.73010404 69.66014356 178.17446131 73 182.875 C75.73890776 185.15855744 75.73890776 185.15855744 78.41796875 184.63671875 C84.10218427 182.95983217 89.05547421 179.70052884 93.6875 176.0625 C104.31968645 167.88715345 117.15667598 160.33685289 131 161.875 C137.48513956 163.69124953 143.84396578 166.39609016 148 171.875 C152.49501629 180.74498763 153.89330315 191.42613585 151.0625 201.0625 C143.77369194 217.24844467 124.73339144 224.83848993 109.21533203 230.73974609 C103.51649765 232.84528362 97.78788259 234.8671735 92.0559082 236.88037109 C82.83776462 240.13107915 74.0956336 243.25315039 66 248.875 C65.42540039 249.24544434 64.85080078 249.61588867 64.25878906 249.99755859 C59.42831808 253.46354911 56.69746885 258.28425396 55 263.875 C54.38920481 271.7732137 56.2981928 279.8879877 60 286.875 C63.32194163 290.27603548 66.00867291 291.1160714 70.625 291.375 C80.16242797 290.93173123 88.08089216 287.17903913 95.88671875 281.9375 C125.24329167 262.48923086 125.24329167 262.48923086 141 263.875 C145.57060509 265.70324204 148.17303537 268.90196863 151 272.875 C155.08307245 282.98546513 153.13063922 293.08931899 149 302.875 C140.65536057 317.65952421 124.27259297 323.21624174 109.36328125 329.1015625 C108.39237549 329.48900635 107.42146973 329.8764502 106.42114258 330.27563477 C104.52341676 331.03044272 102.62108325 331.77380329 100.71362305 332.50366211 C93.85661714 335.22037702 87.94378979 338.56323648 83 344.125 C80.92528659 349.83046188 81.1174329 355.64777017 83.625 361.1875 C86.84343468 366.73035972 90.75831036 369.65130568 96.6875 371.8125 C105.72243787 374.12157773 113.05605111 371.12773304 121.125 367.1875 C121.76969238 366.87321045 122.41438477 366.5589209 123.07861328 366.23510742 C132.00091629 361.62491213 139.33345816 354.87664777 146.5625 348 C147.30846436 347.29093506 148.05442871 346.58187012 148.82299805 345.85131836 C183.90351719 312.27276457 205.62338029 262.9268295 215 215.875 C215.17644043 215.029375 215.35288086 214.18375 215.53466797 213.3125 C224.23729517 170.25648913 216.52603044 121.45092764 193.92236328 83.74780273 C193 81.875 193 81.875 193 78.875 C212.25677504 86.37947851 226.85710965 116.02416039 234.75512695 133.82226562 C251.93503245 174.36356382 256.9375456 220.4173932 251 263.875 C250.87641113 264.78523926 250.75282227 265.69547852 250.62548828 266.63330078 C248.63041286 280.69555968 245.16974741 293.98554635 240.76367188 307.47363281 C239.8279825 310.41590925 239.04834351 313.39295217 238.25 316.375 C229.16287006 345.60849037 208.90988207 375.64498809 185 394.875 C184.06929688 395.64328125 183.13859375 396.4115625 182.1796875 397.203125 C167.00887574 409.47938018 149.17806129 417.98872266 131 424.875 C131.48210937 425.5040625 131.96421875 426.133125 132.4609375 426.78125 C133.09257812 427.6371875 133.72421875 428.493125 134.375 429.375 C135.00148438 430.2103125 135.62796875 431.045625 136.2734375 431.90625 C140.03853104 438.3801665 140.34198434 445.00628162 140.3125 452.3125 C140.32861328 453.10720703 140.34472656 453.90191406 140.36132812 454.72070312 C140.36672326 461.35132913 139.28444572 467.56689126 135.45703125 473.109375 C126.1727528 481.66590716 115.62533533 486.94724254 102.6875 487.25 C93.68698298 486.78091768 85.20799272 484.53218216 78 478.875 C73.00456704 473.05338899 71.91930782 466.86151478 70.9375 459.4375 C69.52304731 447.3193745 69.52304731 447.3193745 63.26586914 437.22949219 C61.57041773 435.94350554 59.86940893 434.88848366 58 433.875 C57.21625 433.441875 56.4325 433.00875 55.625 432.5625 C50.43275575 431.20262651 45.84563837 431.00867995 40.9375 433.3125 C34.26182254 439.13596331 29.21358378 445.88390946 24.1875 453.125 C3.98602668 482.13142839 3.98602668 482.13142839 -12.6484375 485.39453125 C-28.88776565 487.13944473 -44.04836226 482.30368733 -57.05078125 472.59765625 C-67.28207321 463.73053655 -72.94116521 453.63985229 -74 439.875 C-74.48130598 430.24888044 -73.57880897 420.3871869 -67 412.875 C-61.4726771 407.23338261 -54.87438252 403.94474549 -47.875 400.4375 C-45.62874925 399.28806718 -43.38265376 398.13833089 -41.13671875 396.98828125 C-38.34693968 395.57127068 -35.55610392 394.15639174 -32.76416016 392.74365234 C-10.37966082 381.36140627 7.53487211 364.09167926 15.96484375 340.1328125 C18.33641578 332.41700673 19.60621043 324.82360065 16.5 317.1875 C13.58289715 314.48917986 12.04726291 314.46138858 8.16699219 314.58325195 C4.51644908 315.07473449 1.58810448 316.57706052 -1.625 318.3125 C-2.31376221 318.66940918 -3.00252441 319.02631836 -3.7121582 319.39404297 C-8.980443 322.18082357 -13.94728911 325.34721934 -18.90722656 328.64257812 C-29.13525929 335.35198025 -41.40418289 341.6335783 -54 339.875 C-58.37739213 338.51142298 -61.27865103 336.69382856 -64.3125 333.25 C-69.33845215 323.19809569 -71.41435115 311.02343514 -68.15625 300.02734375 C-66.97180851 297.6944742 -65.70412973 295.85683976 -64 293.875 C-63.48824219 293.27816406 -62.97648437 292.68132812 -62.44921875 292.06640625 C-52.87401825 282.53366783 -38.35750124 278.16433569 -26.0625 273.4375 C-6.23491107 265.78885178 12.72593964 258.14260423 22.4375 237.875 C23.19697278 233.82447852 23.18466248 229.85037743 22 225.875 C18.14683633 223.30622422 15.44864921 223.23659868 11 223.875 C4.02735314 225.77261908 -2.71306781 228.39132205 -9.4765625 230.91796875 C-10.43095215 231.27181641 -11.3853418 231.62566406 -12.36865234 231.99023438 C-14.23970382 232.68652806 -16.107462 233.39176048 -17.97119141 234.10742188 C-29.25669711 238.3268427 -41.92851049 241.3578919 -53.4375 236.1875 C-61.41811268 231.53077137 -65.74747985 222.47070271 -68.65234375 213.96484375 C-69.74408883 207.40210647 -70.50699738 198.59113828 -67.25 192.5625 C-65.14254693 190.04526439 -63.94563555 189.09388368 -61 187.875 C-60.67 186.885 -60.34 185.895 -60 184.875 C-49.48368364 177.60001403 -36.52479074 174.95363856 -24.359375 171.75878906 C4.51932622 166.01413043 4.51932622 166.01413043 27.5625 149.625 C29.99063301 144.55613248 30.0372534 138.91267066 28.234375 133.6328125 C24.27798161 125.3118264 18.76858588 120.21694726 10.2578125 116.76171875 C-8.64736991 111.61606359 -27.12422608 120.04827689 -43.33203125 129.1171875 C-56.38097257 136.69049964 -67.68635452 145.76579274 -78.42382812 156.32958984 C-79.78118631 157.66045684 -81.16191413 158.96741313 -82.546875 160.26953125 C-88.60330754 166.0575049 -93.67656371 172.53153999 -98.72167969 179.1953125 C-99.86302551 180.69501824 -101.02765403 182.17693891 -102.1953125 183.65625 C-139.34098999 232.0184654 -155.81261491 313.64628195 -149.71191406 373.25219727 C-149.21108284 378.16025411 -148.89171239 382.94114576 -149 387.875 C-149.66 387.875 -150.32 387.875 -151 387.875 C-155.97913766 375.51345099 -160.32486274 363.2535873 -163.41894531 350.28613281 C-164.01393172 347.81718923 -164.64107446 345.35805228 -165.2734375 342.8984375 C-178.36980177 291.15592881 -179.44679899 235.73158851 -164.67089844 184.23291016 C-163.97878628 181.80044318 -163.3209693 179.36015564 -162.6640625 176.91796875 C-151.65600611 137.01182904 -124.5767856 99.51438364 -88.65087891 78.50097656 C-79.3085685 73.20303004 -69.7592459 68.7151 -59.7109375 64.93359375 C-57.12342462 64.13224661 -57.12342462 64.13224661 -56 62.875 C-57.0828125 62.194375 -57.0828125 62.194375 -58.1875 61.5 C-63.92364684 56.14626295 -66.53766789 48.96065317 -67.23828125 41.25390625 C-67.53819483 29.87297521 -64.68364631 17.29435448 -58 7.875 C-42.95313095 -7.58075136 -18.34960848 -12.91494906 0 0 Z " fill="#040404" transform="translate(211,10.125)"/>
<path d="M0 0 C0.66 0.33 1.32 0.66 2 1 C-1.63 4.63 -5.26 8.26 -9 12 C-9 8.00102358 -7.64683965 6.93298448 -5 4 C-3.36643049 2.62631655 -1.7074998 1.28062485 0 0 Z " fill="#797979" transform="translate(161,11)"/>
<path d="M0 0 C0 3 0 3 -1.53125 4.82421875 C-2.1809375 5.43910156 -2.830625 6.05398437 -3.5 6.6875 C-4.1496875 7.31011719 -4.799375 7.93273438 -5.46875 8.57421875 C-5.9740625 9.04472656 -6.479375 9.51523437 -7 10 C-7.66 9.67 -8.32 9.34 -9 9 C-8.06725891 7.87105124 -7.12859878 6.74699124 -6.1875 5.625 C-5.66542969 4.99851562 -5.14335937 4.37203125 -4.60546875 3.7265625 C-3 2 -3 2 0 0 Z " fill="#404040" transform="translate(280,30)"/>
</svg>
