<?xml version="1.0" encoding="UTF-8"?>
<svg version="1.1" xmlns="http://www.w3.org/2000/svg" width="467" height="534">
<path d="M0 0 C1.3344354 0.2834952 2.66908809 0.56596875 4.00390625 0.84765625 C20.19532494 4.35854127 34.35809011 10.38023057 49 18 C49 18.66 49 19.32 49 20 C50.05380859 20.36158203 50.05380859 20.36158203 51.12890625 20.73046875 C54.4676026 22.20676305 57.04028238 24.09390993 59.9375 26.3125 C60.72809814 26.91698975 60.72809814 26.91698975 61.53466797 27.53369141 C71.41425893 35.12138839 71.41425893 35.12138839 74 39 C77.84738951 37.43254501 80.10053647 34.92072059 83 32 C111.32916269 6.75710381 147.42385361 -3.73371008 185 -2 C190.7764802 -1.49161515 196.37088303 -0.36209747 202 1 C203.10118164 1.25740967 203.10118164 1.25740967 204.22460938 1.52001953 C219.58280652 5.18281207 232.93096581 11.0569902 246 20 C246.95648438 20.63550781 247.91296875 21.27101563 248.8984375 21.92578125 C254.14479304 25.47478647 254.14479304 25.47478647 256 27 C256 27.66 256 28.32 256 29 C256.598125 29.268125 257.19625 29.53625 257.8125 29.8125 C259.99847854 30.99917406 261.41332594 32.09599113 263 34 C263 34.66 263 35.32 263 36 C263.99 36.33 264.98 36.66 266 37 C281.85819394 53.45595291 291.64018551 77.12367413 291.5 99.9375 C291.49572998 101.01217529 291.49145996 102.08685059 291.48706055 103.1940918 C291.17554262 118.13484399 287.53925457 132.56415454 281 146 C280.41902052 147.24988368 279.83830939 148.49989211 279.2578125 149.75 C273.02994581 162.89878316 265.11020013 174.6773227 256 186 C254.85319797 187.49925953 253.70738322 188.9992747 252.5625 190.5 C249.42105153 194.55325211 246.05952505 198.36727663 242.6015625 202.15234375 C240.93815104 203.91710524 240.93815104 203.91710524 240 206 C239.34 206 238.68 206 238 206 C238 206.66 238 207.32 238 208 C237.34 208 236.68 208 236 208 C236 208.66 236 209.32 236 210 C235.34 210 234.68 210 234 210 C233.65473267 210.83204956 233.65473267 210.83204956 233.30249023 211.6809082 C231.64000156 214.64097941 229.55832069 216.70117817 227.16015625 219.10546875 C226.67856552 219.58897293 226.19697479 220.07247711 225.70079041 220.57063293 C224.67855488 221.59422728 223.65379795 222.61530894 222.62670898 223.6340332 C221.09195579 225.15824649 219.56795721 226.69260468 218.04492188 228.22851562 C201.4485201 244.8504933 201.4485201 244.8504933 195 247 C195 247.66 195 248.32 195 249 C194.34 249 193.68 249 193 249 C193 249.66 193 250.32 193 251 C191.35 251.66 189.7 252.32 188 253 C188 253.66 188 254.32 188 255 C186.00715862 256.3440093 184.00580329 257.67541292 182 259 C180.33057624 260.663905 178.66419936 262.33086968 177 264 C174.27483925 266.28662914 171.4995581 268.50035253 168.71875 270.71875 C165.97275216 273.02286313 163.50800942 275.43824752 161 278 C159.53798584 279.45336114 158.07427121 280.90501258 156.609375 282.35546875 C154.98952395 283.96608612 153.3697338 285.57676472 151.75 287.1875 C150.50863281 288.41629883 150.50863281 288.41629883 149.2421875 289.66992188 C148.45585937 290.45302734 147.66953125 291.23613281 146.859375 292.04296875 C146.14233398 292.75477295 145.42529297 293.46657715 144.68652344 294.19995117 C142.92904829 295.90424776 142.92904829 295.90424776 142 298 C141.34 298 140.68 298 140 298 C139.75636719 298.54527344 139.51273437 299.09054687 139.26171875 299.65234375 C137.71214357 302.53560902 135.81554356 304.97336797 133.8125 307.5625 C129.54154909 313.19344556 125.5093948 318.8585591 122 325 C121.12601562 326.49853516 121.12601562 326.49853516 120.234375 328.02734375 C114.87391745 338.56039235 113.22962804 351.83720814 116.69726562 363.30615234 C118.37528318 367.47708679 120.60177703 371.19850028 123 375 C123.33 375.99 123.66 376.98 124 378 C125.84971696 379.05021103 125.84971696 379.05021103 128 380 C130.25 381.5 130.25 381.5 132 383 C132 383.66 132 384.32 132 385 C132.5671875 385.13277344 133.134375 385.26554687 133.71875 385.40234375 C136 386 136 386 138.15625 386.75390625 C149.23669425 390.57665952 159.80269574 389.56175236 170.6875 385.6875 C179.33976936 381.27974014 183.11174687 375.30509212 186.3125 366.3125 C188.31392043 356.67104197 187.46698358 347.14349555 184 338 C183.67 337.01 183.34 336.02 183 335 C180.24236568 333.85771342 180.24236568 333.85771342 177 333 C176.0925 332.608125 175.185 332.21625 174.25 331.8125 C168.34304444 330.33576111 163.04394973 331.03376922 157.5625 333.625 C154.33454004 336.61676777 153.18357745 338.75304561 152 343 C152.05850416 346.06171794 152.43407426 348.99309338 153 352 C157.08502774 353.16299722 159.08514439 352.84044106 162.875 351 C167.34303004 349.09177884 170.23418501 348.3796229 175 350 C178.45468518 353.45468518 179.79311157 356.27592977 180.375 361.125 C179.81573872 366.90403328 177.55045452 371.60059746 173.28515625 375.61328125 C164.98191197 381.77258062 155.98938657 381.98732309 146 381 C142.78939763 380.19734941 140.59776712 379.02181875 138 377 C137.32839844 376.51402344 136.65679687 376.02804687 135.96484375 375.52734375 C129.40199558 370.33840025 124.20695834 363.4221818 123 355 C121.87136773 342.47652272 125.57119414 331.09601568 133 321 C133.66 321 134.32 321 135 321 C135.40605469 320.09894531 135.40605469 320.09894531 135.8203125 319.1796875 C139.80099452 311.8246525 148.6295683 308.08272825 156 305 C160.7064319 303.63803597 165.51557847 303.85243303 170.375 303.875 C171.2 303.87113281 172.025 303.86726563 172.875 303.86328125 C180.76519819 303.87580537 186.98940941 304.650609 194.125 308.3125 C195.30320312 308.90675781 196.48140625 309.50101562 197.6953125 310.11328125 C207.91140106 315.94587082 213.59630606 324.47176413 217.125 335.5234375 C218.46041436 341.20511557 218.32922406 346.94340697 218.3125 352.75 C218.32861328 353.8534375 218.34472656 354.956875 218.36132812 356.09375 C218.37009481 371.032183 213.94779676 387.4477199 204 399 C203.34 399 202.68 399 202 399 C201.75507813 399.58136719 201.51015625 400.16273438 201.2578125 400.76171875 C195.50711192 410.99510829 181.14628246 415.63691914 170.57421875 419.1328125 C163.17668416 420.92762417 155.7741849 421.19399113 148.1875 421.1875 C147.29039307 421.18741943 146.39328613 421.18733887 145.46899414 421.18725586 C134.76844167 421.09852823 123.39051484 420.77283534 113 418 C113 418.66 113 419.32 113 420 C113.66 420 114.32 420 115 420 C115 420.66 115 421.32 115 422 C115.55558594 422.26296875 116.11117188 422.5259375 116.68359375 422.796875 C119.25881464 424.13442649 121.6337995 425.66186594 124.0625 427.25 C127.84105909 429.68518322 131.64258871 431.91637553 135.625 434 C148.91022833 441.19616534 148.91022833 441.19616534 150.77734375 446 C151.0625 447.9375 151.0625 447.9375 151 451 C146.32913773 454.73668982 141.70128736 454.48206007 136 454 C135.36449219 453.83886719 134.72898437 453.67773438 134.07421875 453.51171875 C131.34323428 452.83797305 128.68177554 452.72820121 125.875 452.5625 C120.08981397 452.13919371 114.6416686 451.31537556 109 450 C108.31196289 449.84063965 107.62392578 449.6812793 106.91503906 449.51708984 C101.93897542 448.36286993 96.96826461 447.1873115 92 446 C91.8875293 446.60585938 91.77505859 447.21171875 91.65917969 447.8359375 C85.95285076 477.56831268 85.95285076 477.56831268 78 486 C75.9453125 486.828125 75.9453125 486.828125 74 487 C63.73209332 479.61994207 60.67345066 460.60391352 58 449 C58 448.01 58 447.02 58 446 C56.80503906 446.26554687 55.61007813 446.53109375 54.37890625 446.8046875 C44.81640625 448.9296875 44.81640625 448.9296875 42.40356445 449.4621582 C40.81141392 449.8184312 39.2213226 450.18404518 37.63354492 450.55932617 C33.13114975 451.61066381 28.81940834 452.29925974 24.1875 452.5625 C20.63341846 452.77056451 17.43886454 453.12630474 14 454 C9.37578092 454.39099088 5.26889083 454.4568007 0.875 452.875 C-1 451 -1 451 -1.75 448.1875 C-0.45182285 442.67024711 3.73562735 440.47376118 8.3046875 437.5 C12.65753482 434.8298828 17.11760617 432.39728426 21.625 430 C27.48644371 426.83232616 33.25400001 423.61899998 37 418 C36.27296875 418.13277344 35.5459375 418.26554687 34.796875 418.40234375 C5.81029606 423.49357621 -19.47868851 422.49234379 -45.19921875 407.33203125 C-45.79347656 406.89246094 -46.38773437 406.45289063 -47 406 C-47 405.34 -47 404.68 -47 404 C-47.66 404 -48.32 404 -49 404 C-49 403.34 -49 402.68 -49 402 C-49.99 401.67 -50.98 401.34 -52 401 C-59.29969297 393.26450446 -62.91263136 383.98943694 -66 374 C-66.37511719 372.79085938 -66.75023438 371.58171875 -67.13671875 370.3359375 C-70.40603294 356.64776509 -70.33005076 338.28479393 -63 326 C-62.22076172 324.62714844 -62.22076172 324.62714844 -61.42578125 323.2265625 C-55.5054475 313.81474988 -46.33786595 308.65465402 -36 305 C-20.11059629 301.99593913 -5.83644172 303.54439673 8 312 C8 312.66 8 313.32 8 314 C8.598125 314.268125 9.19625 314.53625 9.8125 314.8125 C11.99847854 315.99917406 13.41332594 317.09599113 15 319 C15 319.66 15 320.32 15 321 C15.66 321 16.32 321 17 321 C25.05267217 332.46778134 28.57675252 342.94437753 27 357 C24.20118863 366.25473628 17.36382777 374.27261909 9 379 C2.15643385 382.43431708 -6.552663 382.01982494 -14 381 C-17.73675244 379.61838495 -20.21383503 377.81698537 -23 375 C-23.90492188 374.10087891 -23.90492188 374.10087891 -24.828125 373.18359375 C-28.63819305 369.06195472 -29.79357414 366.22939927 -30.3125 360.625 C-29.8696685 355.4881546 -27.57609671 352.57609671 -24 349 C-18.81658683 348.22248802 -15.05277088 350.07002693 -10.46484375 352.22265625 C-7.53883062 353.1454401 -5.89305465 352.95766627 -3 352 C-1.46004827 348.92009655 -1.77622476 346.41257239 -2 343 C-3.50761646 338.47715063 -4.69614783 335.27147753 -9 333 C-15.79846224 330.33393638 -21.44952296 330.83926712 -28.25 333.0625 C-32.57107896 336.10689654 -35.27084691 340.24288988 -36.625 345.36328125 C-38.15845312 356.14537351 -37.05285734 365.65638238 -31.90234375 375.23828125 C-31 377 -31 377 -30 380 C-29.34 380 -28.68 380 -28 380 C-28 380.66 -28 381.32 -28 382 C-25.66785852 383.20628008 -23.50357861 384.1654738 -21 385 C-21 385.66 -21 386.32 -21 387 C-20.13375 387.144375 -19.2675 387.28875 -18.375 387.4375 C-16.36783378 387.7720277 -14.36468376 388.13613919 -12.375 388.5625 C-4.730034 389.55351411 2.69347776 389.66969082 10 387 C10.67933594 386.78214844 11.35867187 386.56429688 12.05859375 386.33984375 C16.35270829 384.89796676 18.91903258 383.43646366 22 380 C22.66 380 23.32 380 24 380 C24 379.34 24 378.68 24 378 C24.66 378 25.32 378 26 378 C26.41765625 377.14921875 26.41765625 377.14921875 26.84375 376.28125 C27.60222785 374.78479369 28.39322659 373.30429142 29.21875 371.84375 C35.35193449 360.62451008 36.38904188 348.83251584 33.05859375 336.51953125 C29.10407819 324.55157491 22.44088504 315.24456058 14.55615234 305.59375 C11 301.20546547 11 301.20546547 11 299 C10.34 299 9.68 299 9 299 C7.765625 297.7421875 7.765625 297.7421875 6.25 295.875 C2.59236752 291.5650509 -1.31961927 287.55843494 -5.3125 283.5625 C-5.93543945 282.93520996 -6.55837891 282.30791992 -7.20019531 281.66162109 C-7.79026367 281.0733252 -8.38033203 280.4850293 -8.98828125 279.87890625 C-9.51977783 279.3485376 -10.05127441 278.81816895 -10.59887695 278.27172852 C-11.99388405 276.89056415 -11.99388405 276.89056415 -14 276 C-14 275.34 -14 274.68 -14 274 C-14.66 274 -15.32 274 -16 274 C-16 273.34 -16 272.68 -16 272 C-16.55300781 271.76667969 -17.10601562 271.53335937 -17.67578125 271.29296875 C-20.60462669 269.66364465 -22.74867688 267.6105541 -25.1875 265.3125 C-29.42300399 261.37871874 -33.74758329 257.77759256 -38.41796875 254.375 C-38.94003906 253.92125 -39.46210937 253.4675 -40 253 C-40 252.34 -40 251.68 -40 251 C-41.65 250.34 -43.3 249.68 -45 249 C-45 248.34 -45 247.68 -45 247 C-45.58265625 246.731875 -46.1653125 246.46375 -46.765625 246.1875 C-49.02786601 244.98519009 -50.80576318 243.66174087 -52.75 242 C-53.36359375 241.484375 -53.9771875 240.96875 -54.609375 240.4375 C-56 239 -56 239 -56 237 C-56.73283203 236.75612549 -57.46566406 236.51225098 -58.22070312 236.26098633 C-61.33834341 234.84649124 -63.07995394 233.26386801 -65.46875 230.82421875 C-66.69658203 229.58188477 -66.69658203 229.58188477 -67.94921875 228.31445312 C-68.79097656 227.44755859 -69.63273437 226.58066406 -70.5 225.6875 C-71.34175781 224.83220703 -72.18351562 223.97691406 -73.05078125 223.09570312 C-74.67144466 221.44824134 -76.28901717 219.79773165 -77.90307617 218.14379883 C-79.53360569 216.47682017 -81.17976149 214.82512028 -82.83203125 213.1796875 C-88.72729833 207.25255411 -94.1676681 200.88167962 -99.5625 194.5 C-100.40941406 193.4996875 -101.25632813 192.499375 -102.12890625 191.46875 C-104 189 -104 189 -104 187 C-104.66 187 -105.32 187 -106 187 C-107.29345703 185.47802734 -107.29345703 185.47802734 -108.7578125 183.3359375 C-109.29704346 182.55081787 -109.83627441 181.76569824 -110.3918457 180.95678711 C-110.96378662 180.10479736 -111.53572754 179.25280762 -112.125 178.375 C-113.00514771 177.07091187 -113.00514771 177.07091187 -113.90307617 175.74047852 C-132.27345254 148.27219918 -145.75828798 117.028808 -139.875 83.375 C-136.42781678 68.22342726 -129.02782995 50.30879377 -118 39 C-117.34 39 -116.68 39 -116 39 C-115.67 38.01 -115.34 37.02 -115 36 C-114.34 36 -113.68 36 -113 36 C-112.5978125 35.1028125 -112.5978125 35.1028125 -112.1875 34.1875 C-111.00082594 32.00152146 -109.90400887 30.58667406 -108 29 C-107.34 29 -106.68 29 -106 29 C-106 28.34 -106 27.68 -106 27 C-94.64024397 17.27264986 -80.5827228 9.57913491 -66.375 4.9375 C-65.20529663 4.55235229 -65.20529663 4.55235229 -64.01196289 4.15942383 C-43.73067997 -2.36214872 -20.93145476 -4.86841983 0 0 Z M-65 40 C-65.81597656 40.48210937 -66.63195312 40.96421875 -67.47265625 41.4609375 C-84.83975071 52.03688065 -97.73029651 69.7495267 -102.8125 89.375 C-107.72685465 114.00019014 -98.62191196 136.43418026 -85.25 156.640625 C-84.50062636 157.76083593 -83.75064486 158.88064051 -83 160 C-81.9790625 161.53914063 -81.9790625 161.53914063 -80.9375 163.109375 C-78.58018543 166.63838632 -78.58018543 166.63838632 -76 170 C-75.34 170 -74.68 170 -74 170 C-73.63841797 170.82371094 -73.63841797 170.82371094 -73.26953125 171.6640625 C-71.70732161 174.53852823 -69.78162278 176.86205266 -67.6875 179.375 C-66.88570312 180.33792969 -66.08390625 181.30085937 -65.2578125 182.29296875 C-64.51273438 183.18628906 -63.76765625 184.07960937 -63 185 C-62.46117187 185.67675781 -61.92234375 186.35351562 -61.3671875 187.05078125 C-60.28886555 188.40352645 -59.15147479 189.70895251 -58 191 C-57.34 191 -56.68 191 -56 191 C-55.67 191.99 -55.34 192.98 -55 194 C-54.34 194 -53.68 194 -53 194 C-53 194.66 -53 195.32 -53 196 C-52.34 196 -51.68 196 -51 196 C-51 196.99 -51 197.98 -51 199 C-49.60230149 200.19315727 -48.19572314 201.37722767 -46.75 202.51171875 C-44.93397372 204.05615182 -43.4723525 205.67736265 -41.9375 207.5 C-34.99848304 215.62635987 -27.2779381 223.21317963 -19.11328125 230.1015625 C-15.59251025 233.2643993 -12.31563883 236.68040891 -9.03491211 240.09008789 C-7.7260806 241.42968025 -6.36670331 242.71950413 -5 244 C-4.34 244 -3.68 244 -3 244 C-3 244.66 -3 245.32 -3 246 C-2.34 246 -1.68 246 -1 246 C-1 246.66 -1 247.32 -1 248 C-0.34 248 0.32 248 1 248 C1 248.66 1 249.32 1 250 C3.33333333 252.66666667 3.33333333 252.66666667 6 255 C6.66 255 7.32 255 8 255 C8 255.66 8 256.32 8 257 C8.66 257 9.32 257 10 257 C10 257.66 10 258.32 10 259 C11.33333333 260.66666667 11.33333333 260.66666667 13 262 C13.66 262 14.32 262 15 262 C15 262.66 15 263.32 15 264 C15.66 264 16.32 264 17 264 C17 264.66 17 265.32 17 266 C18.33333333 267.66666667 18.33333333 267.66666667 20 269 C20.66 269 21.32 269 22 269 C22 269.66 22 270.32 22 271 C22.66 271 23.32 271 24 271 C24 271.66 24 272.32 24 273 C26.33333333 275.66666667 26.33333333 275.66666667 29 278 C29.66 278 30.32 278 31 278 C31 278.66 31 279.32 31 280 C31.66 280 32.32 280 33 280 C33 280.66 33 281.32 33 282 C33.66 282 34.32 282 35 282 C35.20238281 282.53109375 35.40476563 283.0621875 35.61328125 283.609375 C37.60452428 287.04216579 40.3446492 289.50899216 43.1875 292.25 C47.45762364 296.43596024 51.56881512 300.65370184 55.4375 305.21875 C57.70030766 307.79835073 60.14797232 310.17405403 62.6171875 312.5546875 C64 314 64 314 65 316 C65.66 316 66.32 316 67 316 C67.33 316.99 67.66 317.98 68 319 C68.66 319 69.32 319 70 319 C70.268125 319.598125 70.53625 320.19625 70.8125 320.8125 C71.99086308 322.98316883 73.23060981 324.30817212 75 326 C79.67224432 321.43697698 84.14174669 316.78449183 88.390625 311.82421875 C89.84536251 310.17528084 91.35053206 308.64510131 92.9375 307.125 C95.23215846 305.25436301 95.23215846 305.25436301 95 303 C95.89138672 302.61521484 95.89138672 302.61521484 96.80078125 302.22265625 C99.21062253 300.88290435 100.44871988 299.5626757 102.1875 297.4375 C105.64839957 293.32203899 109.3967604 289.60143494 113.27734375 285.8828125 C115.2250104 284.17939784 115.2250104 284.17939784 115 282 C115.598125 281.731875 116.19625 281.46375 116.8125 281.1875 C118.99847854 280.00082594 120.41332594 278.90400887 122 277 C122 276.34 122 275.68 122 275 C122.66 275 123.32 275 124 275 C124 274.34 124 273.68 124 273 C124.66 273 125.32 273 126 273 C126 272.34 126 271.68 126 271 C126.66 271 127.32 271 128 271 C130.66666667 268.66666667 130.66666667 268.66666667 133 266 C133 265.34 133 264.68 133 264 C133.66 264 134.32 264 135 264 C135 263.34 135 262.68 135 262 C135.66 262 136.32 262 137 262 C138.66666667 260.66666667 138.66666667 260.66666667 140 259 C140 258.34 140 257.68 140 257 C140.66 257 141.32 257 142 257 C142 256.34 142 255.68 142 255 C142.54946289 254.77723389 143.09892578 254.55446777 143.66503906 254.32495117 C146.70445373 252.60026449 148.94449385 250.28348674 151.359375 247.80078125 C151.8674469 247.28750778 152.3755188 246.77423431 152.89898682 246.2454071 C154.52083649 244.60580301 156.1358566 242.95968847 157.75 241.3125 C159.86632759 239.15931934 161.98623471 237.0097441 164.109375 234.86328125 C164.87344666 234.08865036 164.87344666 234.08865036 165.6529541 233.29837036 C169.13905778 229.7904273 172.74483243 226.50825491 176.58300781 223.39135742 C178.27139878 221.94473532 178.27139878 221.94473532 179 219 C179.66 219 180.32 219 181 219 C181 218.34 181 217.68 181 217 C181.61875 216.7525 182.2375 216.505 182.875 216.25 C185.35068687 214.79371361 185.95125002 213.62187494 187 211 C187.66 211 188.32 211 189 211 C189 210.34 189 209.68 189 209 C189.639375 208.731875 190.27875 208.46375 190.9375 208.1875 C193.33131686 207.11332248 193.33131686 207.11332248 194 204 C194.99 203.67 195.98 203.34 197 203 C198.81961805 201.2797466 198.81961805 201.2797466 200.5625 199.1875 C201.16191406 198.50042969 201.76132812 197.81335938 202.37890625 197.10546875 C203.89648749 195.13444155 204.97902958 193.26035739 206 191 C206.66 191 207.32 191 208 191 C209.43549726 189.40665761 210.79827327 187.74748918 212.125 186.0625 C215.0599105 182.38797321 218.02741174 178.79529477 221.1875 175.3125 C224.72079163 171.363527 227.92749233 167.31516632 231 163 C231.4012207 162.44957031 231.80244141 161.89914063 232.21582031 161.33203125 C244.13744011 144.93228318 253.14707231 127.70908441 254 107 C254.09474609 105.74896484 254.09474609 105.74896484 254.19140625 104.47265625 C254.78743442 91.37926319 249.79550417 79.4557799 244 68 C243.34 68 242.68 68 242 68 C241.88785156 67.18208984 241.88785156 67.18208984 241.7734375 66.34765625 C240.70392515 63.10130816 238.81819501 61.04591154 236.625 58.4375 C235.83351563 57.48746094 235.04203125 56.53742188 234.2265625 55.55859375 C231.73966492 52.65190136 231.73966492 52.65190136 229 50 C228.34 50 227.68 50 227 50 C227 49.34 227 48.68 227 48 C225.13835311 46.38182208 223.288129 44.90358811 221.3125 43.4375 C220.51682617 42.8197168 220.51682617 42.8197168 219.70507812 42.18945312 C216.51962354 39.80133932 213.97662751 38.42053389 210 38 C210 37.34 210 36.68 210 36 C208.3570741 35.36739676 206.71045109 34.74439451 205.0625 34.125 C204.14597656 33.77695313 203.22945313 33.42890625 202.28515625 33.0703125 C181.62271776 26.33843599 157.44388341 28.7112141 137.734375 37.5859375 C132.93332563 40.06876589 128.48266282 42.99127458 124 46 C123.21753906 46.46019531 122.43507813 46.92039062 121.62890625 47.39453125 C111.7648837 53.32662107 105.35962133 63.01831991 100 73 C99.60941406 73.69222656 99.21882812 74.38445312 98.81640625 75.09765625 C92.85383374 86.78255109 92.96368794 100.50486623 96.890625 112.78515625 C98.80005335 117.80877131 101.20891721 122.4146497 104 127 C104.66 127 105.32 127 106 127 C106.35384766 127.83724609 106.35384766 127.83724609 106.71484375 128.69140625 C111.14201313 136.6441634 118.94933795 142.17959492 127 146 C127.66773438 146.36738281 128.33546875 146.73476562 129.0234375 147.11328125 C140.26998051 153.22553289 154.51806049 153.87546376 166.875 150.875 C174.0232215 148.58320379 181.26991161 144.89251166 187 140 C187 139.34 187 138.68 187 138 C187.639375 137.731875 188.27875 137.46375 188.9375 137.1875 C191.33131686 136.11332248 191.33131686 136.11332248 192 133 C192.66 133 193.32 133 194 133 C200.86359928 123.1416699 204.24407142 114.03601623 203 102 C201.5031166 96.25580212 199.35321698 90.91981178 196 86 C195.34 86 194.68 86 194 86 C193.76152344 85.41476563 193.52304687 84.82953125 193.27734375 84.2265625 C190.38657251 79.18760346 184.66704123 75.86631552 179.24609375 74.10546875 C169.80962941 72.2396529 157.96712229 71.14840755 149.54296875 76.5859375 C143.82902266 80.96139864 138.99970624 84.83666874 137 92 C136.67247427 95.03209423 136.5264661 97.98045264 137 101 C137.66 101.66 138.32 102.32 139 103 C142.42742732 102.79838663 144.92001534 101.54670676 147.875 99.9375 C151.7509386 97.9447858 154.59524046 97.33513063 159 98 C161.9375 99.375 161.9375 99.375 164 102 C164.99852307 107.11524101 164.6250929 110.8909642 162.0625 115.4375 C161.381875 116.283125 160.70125 117.12875 160 118 C159.67 118.99 159.34 119.98 159 121 C158.34 121 157.68 121 157 121 C157 121.66 157 122.32 157 123 C156.29875 123.268125 155.5975 123.53625 154.875 123.8125 C151.94852832 124.94731211 151.94852832 124.94731211 149.1875 126.625 C142.12250454 129.6726451 135.87995032 127.83859317 128.90625 125.3203125 C121.70857329 122.05040023 117.48332771 117.40130686 114.67578125 110.0546875 C111.06001002 99.06107093 112.91457066 86.0151681 117.8125 75.625 C118.51072611 74.39852792 119.2406341 73.18958686 120 72 C120.61294922 71.00419922 120.61294922 71.00419922 121.23828125 69.98828125 C128.94956065 58.5842765 141.83460031 53.54095323 154.79980469 50.41723633 C158.94247279 49.63163715 163.10627611 49.43063072 167.3125 49.25 C168.24167236 49.20979736 169.17084473 49.16959473 170.12817383 49.12817383 C182.97217019 48.69932775 194.50771777 51.24483487 205 59 C205.62519531 59.44214844 206.25039063 59.88429688 206.89453125 60.33984375 C213.44013384 65.05818443 218.94852483 69.96322734 223 77 C223.66 77 224.32 77 225 77 C225.2475 77.804375 225.495 78.60875 225.75 79.4375 C226.97573662 82.93084936 228.42314404 86.21393444 230 89.55859375 C232.52161706 95.71488539 233.36052887 101.24020166 233.3125 107.8125 C233.30758545 108.60930176 233.3026709 109.40610352 233.29760742 110.22705078 C233.17728867 116.2775413 232.31157324 121.38080976 230 127 C229.68289063 127.91523438 229.36578125 128.83046875 229.0390625 129.7734375 C226.2100769 137.41771774 222.06543109 143.51576493 217.20703125 149.96875 C215.50918186 152.30066349 214.15097205 154.37655534 213 157 C212.34 157 211.68 157 211 157 C209.82793789 158.13758969 208.66182418 159.28183697 207.5234375 160.453125 C191.76299874 176.45603205 172.49302868 183.70692004 150.1875 184.3125 C139.71855856 184.14855685 129.55440139 182.36249443 120 178 C118.83855469 177.525625 117.67710937 177.05125 116.48046875 176.5625 C112.8877242 174.9495956 109.65077491 173.08592799 106.3125 171 C105.21550781 170.319375 104.11851562 169.63875 102.98828125 168.9375 C100 167 100 167 97.73046875 165.25 C96.08557605 163.80481421 96.08557605 163.80481421 94 164 C94 163.34 94 162.68 94 162 C92.52520322 160.73588848 90.9928273 159.53859807 89.4375 158.375 C85.19156539 155.09596139 81.82518268 151.72134421 78.5703125 147.46875 C76.8714703 145.54460359 76.8714703 145.54460359 73 146 C71.26526288 147.94125344 69.5954349 149.94272868 68 152 C67.01 152.495 67.01 152.495 66 153 C66 153.66 66 154.32 66 155 C65.34 155 64.68 155 64 155 C64 155.66 64 156.32 64 157 C62 158 60 159 58 160 C58 160.66 58 161.32 58 162 C57.34 162 56.68 162 56 162 C56 162.66 56 163.32 56 164 C55.27554688 164.26039063 54.55109375 164.52078125 53.8046875 164.7890625 C50.91260316 166.03773401 48.66312874 167.51803041 46.125 169.375 C27.70120979 182.43080448 6.30151955 186.47435996 -15.9375 182.6875 C-16.98393677 182.51118042 -16.98393677 182.51118042 -18.05151367 182.33129883 C-22.71989333 181.45622227 -26.68622844 179.98570437 -31 178 C-32.0725 177.5875 -33.145 177.175 -34.25 176.75 C-42.96654812 172.96697912 -50.19100282 167.25214289 -57.00390625 160.72265625 C-58.81291002 158.78221673 -58.81291002 158.78221673 -61 159 C-61 158.34 -61 157.68 -61 157 C-61.66 157 -62.32 157 -63 157 C-63.20625 156.319375 -63.4125 155.63875 -63.625 154.9375 C-64.85889372 152.30145433 -65.83011423 150.96073978 -67.75 148.875 C-78.41198701 136.81216798 -83.48406691 120.0620616 -83.421875 104.203125 C-82.4359311 88.98529522 -72.73459869 73.77222671 -61.625 63.9375 C-59.75915253 62.35784826 -58.18520192 61.09260096 -56 60 C-56 59.34 -56 58.68 -56 58 C-55.113125 57.731875 -54.22625 57.46375 -53.3125 57.1875 C-50.07691918 56.16904668 -50.07691918 56.16904668 -47.7734375 54.5625 C-39.51531539 49.91003684 -28.36365453 48.12090868 -19 49 C-17.69160156 49.10570313 -16.38320312 49.21140625 -15.03515625 49.3203125 C-0.2374049 50.67567956 14.42437585 54.27445235 25.234375 65.2734375 C26.97105338 67.44799632 28.5100403 69.6512739 30 72 C30.7425 73.0725 31.485 74.145 32.25 75.25 C37.52304426 85.06877207 38.64599551 97.65141762 35.75 108.3125 C33.10379711 116.03160796 28.93999384 120.82862072 22 125 C15.60817877 128.02591537 8.79996911 129.42121991 1.90234375 127.37890625 C-3.13988514 125.19296887 -6.19459591 121.89153823 -9.5546875 117.609375 C-10.03164062 117.07828125 -10.50859375 116.5471875 -11 116 C-11.66 116 -12.32 116 -13 116 C-14.18121001 111.42281123 -14.76064312 106.68626104 -14 102 C-11.43933103 98.8185628 -9.80768526 98.14253269 -5.8125 97.4375 C-1.34848749 98.0961248 1.77292729 99.69803752 5.66796875 101.90625 C8.17428138 103.28308543 8.17428138 103.28308543 12 103 C13.70863356 97.87409932 13.45524858 93.5264217 11.9375 88.4375 C7.92705726 81.32219837 2.28132769 76.47900411 -5.4375 73.8125 C-17.02387639 71.22312043 -27.76253418 72.56418394 -37.75 78.8125 C-45.67409874 84.40760276 -51.11481673 92.41698503 -53 102 C-54.1697211 114.35296372 -50.68643214 123.23062038 -43.5859375 133.19921875 C-43.06257813 133.79347656 -42.53921875 134.38773437 -42 135 C-41.34 135 -40.68 135 -40 135 C-39.67 135.99 -39.34 136.98 -39 138 C-24.97552168 150.00337599 -11.99893374 152.9937778 6 152 C13.25993977 151.25726841 19.50058022 148.18289343 26 145 C26 144.34 26 143.68 26 143 C26.845625 142.814375 27.69125 142.62875 28.5625 142.4375 C33.1400663 140.523245 35.67267929 137.58689892 39 134 C39.825 133.236875 40.65 132.47375 41.5 131.6875 C51.21412244 121.24481837 56.46721741 108.84302776 56.21484375 94.4296875 C55.39282721 85.13342776 53.2712879 76.72940143 48 69 C47.09894531 67.65808594 47.09894531 67.65808594 46.1796875 66.2890625 C34.09658156 48.99363635 15.53628917 36.02899806 -5.25390625 31.47265625 C-6.16011719 31.31667969 -7.06632812 31.16070312 -8 31 C-9.03125 30.81953125 -10.0625 30.6390625 -11.125 30.453125 C-30.03902094 28.24140481 -48.95062559 28.87520258 -65 40 Z " fill="#0E0E0E" transform="translate(163,37)"/>
<path d="M0 0 C4.95 0 9.9 0 15 0 C14.67 0.99 14.34 1.98 14 3 C14 2.34 14 1.68 14 1 C13.27296875 1.13277344 12.5459375 1.26554687 11.796875 1.40234375 C0.52063207 3.38291462 -10.43775231 4.08746273 -21.875 4.125 C-22.87442627 4.12967285 -23.87385254 4.1343457 -24.90356445 4.13916016 C-29.71363382 4.12863573 -34.27212169 4.00968249 -39 3 C-39 2.67 -39 2.34 -39 2 C-26.13 2 -13.26 2 0 2 C0 1.34 0 0.68 0 0 Z " fill="#B1B1B1" transform="translate(186,454)"/>
<path d="M0 0 C0 3.69893276 -0.89152546 4.98918904 -3 8 C-5.48935467 10.35621253 -8.09095787 12.52373579 -10.72265625 14.71875 C-13.10230556 17.10248104 -13.90326933 18.86723344 -15 22 C-18.31034483 25 -18.31034483 25 -21 25 C-21.33 25.99 -21.66 26.98 -22 28 C-24.5625 29.1875 -24.5625 29.1875 -27 30 C-26.34 28.68 -25.68 27.36 -25 26 C-24.34 26 -23.68 26 -23 26 C-23 25.34 -23 24.68 -23 24 C-21.71484375 22.7734375 -21.71484375 22.7734375 -19.9375 21.375 C-15.14302673 17.40716005 -11.00483418 12.84845253 -7.421875 7.7578125 C-6.95265625 7.17773438 -6.4834375 6.59765625 -6 6 C-5.34 6 -4.68 6 -4 6 C-3.566875 5.071875 -3.566875 5.071875 -3.125 4.125 C-2 2 -2 2 0 0 Z " fill="#ABABAB" transform="translate(375,222)"/>
<path d="M0 0 C0.66 0 1.32 0 2 0 C1.1120871 5.9934121 -3.44109611 9.54156084 -8 13.0625 C-14.48428271 18.2429256 -20.22891828 24.04762776 -26 30 C-26 27 -26 27 -24.79418945 25.45361328 C-24.23948975 24.91462402 -23.68479004 24.37563477 -23.11328125 23.8203125 C-22.1996582 22.92119141 -22.1996582 22.92119141 -21.26757812 22.00390625 C-20.62240234 21.38386719 -19.97722656 20.76382812 -19.3125 20.125 C-18.37374023 19.20654297 -18.37374023 19.20654297 -17.41601562 18.26953125 C-16.18590877 17.06647386 -14.95345316 15.86581272 -13.71850586 14.66772461 C-9.25198322 10.41054138 -9.25198322 10.41054138 -5.3125 5.6875 C-4.6628125 4.8521875 -4.6628125 4.8521875 -4 4 C-3.34 4 -2.68 4 -2 4 C-2 3.34 -2 2.68 -2 2 C-1.34 2 -0.68 2 0 2 C0 1.34 0 0.68 0 0 Z " fill="#9B9B9B" transform="translate(289,308)"/>
<path d="M0 0 C0.66 0.33 1.32 0.66 2 1 C-8.33333333 11.33333333 -18.66666667 21.66666667 -29 32 C-29.33 31.01 -29.66 30.02 -30 29 C-29.34 29 -28.68 29 -28 29 C-28 28.34 -28 27.68 -28 27 C-26.61914062 25.64038086 -26.61914062 25.64038086 -24.65625 24.02734375 C-19.31719676 19.48750064 -14.42952259 14.53859512 -9.5 9.5625 C-8.5821875 8.64017578 -7.664375 7.71785156 -6.71875 6.76757812 C-4.47684945 4.51400101 -2.237334 2.25810925 0 0 Z " fill="#D5D5D5" transform="translate(333,265)"/>
<path d="M0 0 C0.66 0.33 1.32 0.66 2 1 C1.65978036 4.17538332 0.97533396 5.02276865 -1.4375 7.25 C-4 9 -4 9 -6 9 C-6.23460937 9.56203125 -6.46921875 10.1240625 -6.7109375 10.703125 C-8.30663 13.54635891 -10.28924543 15.48098127 -12.625 17.75 C-13.44226563 18.54921875 -14.25953125 19.3484375 -15.1015625 20.171875 C-15.72804688 20.77515625 -16.35453125 21.3784375 -17 22 C-17.66 21.67 -18.32 21.34 -19 21 C-18.29875 20.32195312 -17.5975 19.64390625 -16.875 18.9453125 C-10.75937698 12.96801777 -5.17328955 6.83348562 0 0 Z " fill="#101010" transform="translate(342,256)"/>
<path d="M0 0 C3.06829194 4.60243791 3.16074583 7.92785196 3.1875 13.375 C3.20167969 14.68210937 3.21585938 15.98921875 3.23046875 17.3359375 C3.0164804 20.73798963 2.48144811 22.96683747 1 26 C-0.0625 24.125 -0.0625 24.125 -1 22 C-0.67 21.34 -0.34 20.68 0 20 C0.08372659 18.47851674 0.10730027 16.95344222 0.09765625 15.4296875 C0.09443359 14.53378906 0.09121094 13.63789063 0.08789062 12.71484375 C0.07532227 11.30912109 0.07532227 11.30912109 0.0625 9.875 C0.05798828 8.93011719 0.05347656 7.98523438 0.04882812 7.01171875 C0.03702357 4.67441613 0.02055759 2.33723939 0 0 Z " fill="#929292" transform="translate(187,373)"/>
<path d="M0 0 C0 3.93394026 -1.81387336 5.91018575 -4 9 C-5.06832224 10.55852497 -6.13057962 12.12122039 -7.1875 13.6875 C-7.69667969 14.43386719 -8.20585938 15.18023437 -8.73046875 15.94921875 C-10.15029329 18.06676923 -10.15029329 18.06676923 -11 21 C-11.66 21 -12.32 21 -13 21 C-10.87781083 12.36976402 -6.26314071 6.26314071 0 0 Z " fill="#8F8F8F" transform="translate(97,104)"/>
<path d="M0 0 C-4.14118261 4.14118261 -11.56922015 3.18222462 -17.1875 3.1875 C-17.88552734 3.19974609 -18.58355469 3.21199219 -19.30273438 3.22460938 C-23.03816182 3.23527187 -25.83029935 3.07218156 -29 1 C-27.78183594 1.02320313 -26.56367188 1.04640625 -25.30859375 1.0703125 C-23.68490201 1.0890835 -22.06120358 1.10728227 -20.4375 1.125 C-19.63763672 1.14175781 -18.83777344 1.15851563 -18.01367188 1.17578125 C-12.33366773 1.22214863 -5.07827568 -2.03131027 0 0 Z " fill="#CFCFCF" transform="translate(177,425)"/>
<path d="M0 0 C2.88247579 2.44582352 2.98582238 2.83088125 3.328125 6.9140625 C3.31877082 8.48456306 3.29189125 10.05503037 3.25 11.625 C3.23904297 12.43372559 3.22808594 13.24245117 3.21679688 14.07568359 C3.11748946 19.43504564 2.78615783 24.69343466 2 30 C1.67 30 1.34 30 1 30 C1.00523682 29.410979 1.01047363 28.82195801 1.01586914 28.21508789 C1.03689803 25.49756983 1.04974146 22.78006899 1.0625 20.0625 C1.07087891 19.13630859 1.07925781 18.21011719 1.08789062 17.25585938 C1.10837786 11.41699697 0.75429787 5.79086947 0 0 Z " fill="#B9B9B9" transform="translate(415,124)"/>
<path d="M0 0 C-1.66342837 1.66342837 -3.7825709 1.36048097 -6.0625 1.5625 C-6.98160156 1.64628906 -7.90070313 1.73007812 -8.84765625 1.81640625 C-9.55792969 1.87699219 -10.26820312 1.93757813 -11 2 C-11 2.66 -11 3.32 -11 4 C-17.435 4.495 -17.435 4.495 -24 5 C-20.28809631 2.52539754 -16.86188638 1.81244125 -12.5625 0.8125 C-11.79873047 0.62236328 -11.03496094 0.43222656 -10.24804688 0.23632812 C-9.50748047 0.06166016 -8.76691406 -0.11300781 -8.00390625 -0.29296875 C-7.33174072 -0.4530542 -6.6595752 -0.61313965 -5.96704102 -0.77807617 C-3.73643754 -1.02973542 -2.12986947 -0.66240813 0 0 Z " fill="#B1B1B1" transform="translate(120,38)"/>
<path d="M0 0 C0.66 0.33 1.32 0.66 2 1 C-1.07609216 6.53696589 -3.88750479 9.9625016 -10 12 C-9.1875 10.0625 -9.1875 10.0625 -8 8 C-7.01 7.67 -6.02 7.34 -5 7 C-5 6.34 -5 5.68 -5 5 C-4.34 5 -3.68 5 -3 5 C-3 4.34 -3 3.68 -3 3 C-2.34 3 -1.68 3 -1 3 C-0.67 2.01 -0.34 1.02 0 0 Z " fill="#878787" transform="translate(301,296)"/>
<path d="M0 0 C0.33 0 0.66 0 1 0 C1.3125 2.3125 1.3125 2.3125 1 5 C-2.69173454 8.56867672 -6.74973276 8.32319076 -11.59765625 8.30078125 C-14 8 -14 8 -18 6 C-13.05 6 -8.1 6 -3 6 C-2.67 5.01 -2.34 4.02 -2 3 C-1.34 3 -0.68 3 0 3 C0 2.01 0 1.02 0 0 Z " fill="#B3B3B3" transform="translate(313,483)"/>
<path d="M0 0 C4.95 0 9.9 0 15 0 C14.67 0.99 14.34 1.98 14 3 C14 2.34 14 1.68 14 1 C12.83984375 1.2165625 12.83984375 1.2165625 11.65625 1.4375 C5.67176085 2.50404262 0.07662565 3.23371637 -6 3 C-6 2.67 -6 2.34 -6 2 C-4.02 2 -2.04 2 0 2 C0 1.34 0 0.68 0 0 Z " fill="#A1A1A1" transform="translate(186,454)"/>
<path d="M0 0 C0.556875 0.268125 1.11375 0.53625 1.6875 0.8125 C0.06410195 2.52134005 -1.60569053 4.18696717 -3.3125 5.8125 C-3.9725 5.8125 -4.6325 5.8125 -5.3125 5.8125 C-5.6425 6.8025 -5.9725 7.7925 -6.3125 8.8125 C-8.875 10 -8.875 10 -11.3125 10.8125 C-10.6525 9.4925 -9.9925 8.1725 -9.3125 6.8125 C-8.6525 6.8125 -7.9925 6.8125 -7.3125 6.8125 C-7.3125 6.1525 -7.3125 5.4925 -7.3125 4.8125 C-3.07471307 -0.24930106 -3.07471307 -0.24930106 0 0 Z " fill="#9C9C9C" transform="translate(359.3125,241.1875)"/>
<path d="M0 0 C0 0.66 0 1.32 0 2 C-4.06264843 5.54749992 -9.55685415 10 -15 10 C-13.8803014 8.99406757 -12.7540588 7.9954151 -11.625 7 C-10.99851562 6.443125 -10.37203125 5.88625 -9.7265625 5.3125 C-8 4 -8 4 -6 4 C-6 3.34 -6 2.68 -6 2 C-2.25 0 -2.25 0 0 0 Z " fill="#9F9F9F" transform="translate(113,93)"/>
<path d="M0 0 C0.66 0.33 1.32 0.66 2 1 C1.01 1.33 0.02 1.66 -1 2 C-1.2475 2.61875 -1.495 3.2375 -1.75 3.875 C-3.67794864 7.15251268 -6.53221557 7.68463349 -10 9 C-11.34013497 9.65288627 -12.67741528 10.31225595 -14 11 C-10.60169663 5.74807662 -5.60107784 2.59562144 0 0 Z " fill="#9D9D9D" transform="translate(268,53)"/>
<path d="M0 0 C0.66 0.33 1.32 0.66 2 1 C-2.66666667 5.66666667 -7.33333333 10.33333333 -12 15 C-12.33 14.01 -12.66 13.02 -13 12 C-12.34 12 -11.68 12 -11 12 C-11 11.34 -11 10.68 -11 10 C-9.35546875 8.37890625 -9.35546875 8.37890625 -7.1875 6.5625 C-4.68897282 4.45536324 -2.2757944 2.34758602 0 0 Z " fill="#A9A9A9" transform="translate(316,282)"/>
<path d="M0 0 C4.02376035 0.37960003 6.68230868 1.57000816 10.3125 3.3125 C7.24359813 4.84695094 4.61155734 3.86234289 1.3125 3.3125 C0.9825 3.9725 0.6525 4.6325 0.3125 5.3125 C-0.0175 4.6525 -0.3475 3.9925 -0.6875 3.3125 C-2.71213255 2.66036708 -2.71213255 2.66036708 -4.6875 2.3125 C-2.6875 0.3125 -2.6875 0.3125 0 0 Z " fill="#9A9A9A" transform="translate(141.6875,385.6875)"/>
<path d="M0 0 C6.6 0 13.2 0 20 0 C20 0.66 20 1.32 20 2 C20.66 2.33 21.32 2.66 22 3 C20.96875 2.855625 19.9375 2.71125 18.875 2.5625 C12.60781804 1.7706178 6.30102341 1.41593834 0 1 C0 0.67 0 0.34 0 0 Z " fill="#8C8C8C" transform="translate(139,109)"/>
<path d="M0 0 C1.37239126 2.74478252 0.67824021 4.87583469 0.2578125 7.82421875 C-0.10714579 10.90424552 -0.06455598 13.90131312 0 17 C-2 16 -2 16 -2.625 14.375 C-3.34651556 9.80540145 -3.63953883 6.25243021 -1.5 2.0625 C-1.005 1.381875 -0.51 0.70125 0 0 Z " fill="#999999" transform="translate(136,389)"/>
<path d="M0 0 C0.66 0.33 1.32 0.66 2 1 C1.0919838 2.13199353 0.17316174 3.25532363 -0.75 4.375 C-1.26046875 5.00148438 -1.7709375 5.62796875 -2.296875 6.2734375 C-4.08199481 8.08312318 -5.67949644 9.00117455 -8 10 C-6.5682479 4.98886765 -4.01554307 3.05530451 0 0 Z " fill="#8D8D8D" transform="translate(292,98)"/>
<path d="M0 0 C0.66 0.33 1.32 0.66 2 1 C0.71034824 2.37562854 -0.62689293 3.70766393 -2 5 C-2.66 5 -3.32 5 -4 5 C-4.0825 5.598125 -4.165 6.19625 -4.25 6.8125 C-5.22409548 9.65361183 -6.40494247 10.54982079 -9 12 C-9.99 11.67 -10.98 11.34 -12 11 C-11.113125 10.278125 -10.22625 9.55625 -9.3125 8.8125 C-6.37079825 6.36572911 -3.66830766 3.74454502 -1 1 C-0.67 0.67 -0.34 0.34 0 0 Z " fill="#A3A3A3" transform="translate(249,66)"/>
<path d="M0 0 C0.66 0.33 1.32 0.66 2 1 C-1.34003602 5.32239956 -4.32751069 8.17477391 -9 11 C-7.44095325 7.17324889 -4.96833913 4.81992217 -2 2 C-1.34 1.34 -0.68 0.68 0 0 Z " fill="#A0A0A0" transform="translate(112,349)"/>
<path d="M0 0 C0.66 0 1.32 0 2 0 C3.7265625 1.75 3.7265625 1.75 5.625 4 C6.25664062 4.7425 6.88828125 5.485 7.5390625 6.25 C8.02117187 6.8275 8.50328125 7.405 9 8 C8.67 8.66 8.34 9.32 8 10 C6.68 9.34 5.36 8.68 4 8 C4 6.68 4 5.36 4 4 C2.68 3.67 1.36 3.34 0 3 C0 2.01 0 1.02 0 0 Z " fill="#8C8C8C" transform="translate(228,353)"/>
<path d="M0 0 C0.66 0.33 1.32 0.66 2 1 C1.66354211 4.14027363 0.94763914 5.05098295 -1.375 7.3125 C-2.674375 8.1478125 -2.674375 8.1478125 -4 9 C-4.99 8.67 -5.98 8.34 -7 8 C-4.69 5.36 -2.38 2.72 0 0 Z " fill="#717171" transform="translate(342,256)"/>
<path d="M0 0 C0 0.99 0 1.98 0 3 C0.103125 3.804375 0.20625 4.60875 0.3125 5.4375 C0 8 0 8 -2.5 10.3125 C-3.7375 11.1478125 -3.7375 11.1478125 -5 12 C-4.37343743 7.73937456 -3.1323664 3.1323664 0 0 Z " fill="#959595" transform="translate(283,108)"/>
<path d="M0 0 C2.0625 0.4375 2.0625 0.4375 4 1 C2.90716423 2.03295436 1.80029421 3.05107835 0.6875 4.0625 C0.07261719 4.63097656 -0.54226563 5.19945312 -1.17578125 5.78515625 C-1.77777344 6.18605469 -2.37976563 6.58695312 -3 7 C-3.99 6.67 -4.98 6.34 -6 6 C-4 4 -2 2 0 0 Z " fill="#868686" transform="translate(356,441)"/>
<path d="M0 0 C0.66 0 1.32 0 2 0 C2.53122363 1.76774419 3.04964073 3.53934083 3.5625 5.3125 C3.85253906 6.29863281 4.14257812 7.28476563 4.44140625 8.30078125 C5 11 5 11 4 14 C3.32739649 12.23141309 2.66211605 10.46003984 2 8.6875 C1.62875 7.70136719 1.2575 6.71523437 0.875 5.69921875 C0 3 0 3 0 0 Z " fill="#A2A2A2" transform="translate(27,166)"/>
<path d="M0 0 C5.75 1.875 5.75 1.875 8 3 C8.72159424 4.64363134 9.39351421 6.31050386 10 8 C7.525 7.01 7.525 7.01 5 6 C5 5.34 5 4.68 5 4 C4.360625 3.71125 3.72125 3.4225 3.0625 3.125 C1 2 1 2 0 0 Z " fill="#979797" transform="translate(252,195)"/>
<path d="M0 0 C0.66 0.33 1.32 0.66 2 1 C-0.07143201 5.03384128 -1.96615872 6.92856799 -6 9 C-5 7 -4 5 -3 3 C-2.34 3 -1.68 3 -1 3 C-0.67 2.01 -0.34 1.02 0 0 Z " fill="#898989" transform="translate(48,73)"/>
<path d="M0 0 C-3.78756477 3.61139896 -3.78756477 3.61139896 -6 5 C-8.875 4.8125 -8.875 4.8125 -11 4 C-4.14893617 -1.38297872 -4.14893617 -1.38297872 0 0 Z " fill="#8A8A8A" transform="translate(287,46)"/>
<path d="M0 0 C1 2 1 2 0.875 4.5 C0 7 0 7 -2.5625 8.3125 C-3.7690625 8.6528125 -3.7690625 8.6528125 -5 9 C-3.7508258 5.54074837 -2.32472205 2.85306797 0 0 Z " fill="#858585" transform="translate(398,193)"/>
<path d="M0 0 C2.9375 1.125 2.9375 1.125 6 3 C6.875 6.1875 6.875 6.1875 7 9 C6.34 9 5.68 9 5 9 C3.7109375 7.5390625 3.7109375 7.5390625 2.375 5.625 C1.92898437 4.99851563 1.48296875 4.37203125 1.0234375 3.7265625 C0 2 0 2 0 0 Z " fill="#999999" transform="translate(52,215)"/>
<path d="M0 0 C-1.65 0.33 -3.3 0.66 -5 1 C-5 1.66 -5 2.32 -5 3 C-5.99 3.33 -6.98 3.66 -8 4 C-8.99 3.34 -9.98 2.68 -11 2 C-3.57142857 -1.57142857 -3.57142857 -1.57142857 0 0 Z " fill="#9F9F9F" transform="translate(323,343)"/>
<path d="M0 0 C0.99 0.495 0.99 0.495 2 1 C2.6328125 3.06640625 2.6328125 3.06640625 3.125 5.5625 C3.29257813 6.38878906 3.46015625 7.21507812 3.6328125 8.06640625 C3.75398438 8.70449219 3.87515625 9.34257812 4 10 C2.68 9.67 1.36 9.34 0 9 C0 6.03 0 3.06 0 0 Z " fill="#8F8F8F" transform="translate(62,163)"/>
<path d="M0 0 C0.99 0.33 1.98 0.66 3 1 C2.34 1 1.68 1 1 1 C0.34 2.65 -0.32 4.3 -1 6 C-2.32 5.34 -3.64 4.68 -5 4 C-2.6875 1.9375 -2.6875 1.9375 0 0 Z " fill="#757575" transform="translate(299,93)"/>
<path d="M0 0 C0.6875 1.8125 0.6875 1.8125 1 4 C-0.4375 5.75 -0.4375 5.75 -2 7 C-2.99 6.34 -3.98 5.68 -5 5 C-3.35 3.35 -1.7 1.7 0 0 Z " fill="#7F7F7F" transform="translate(242,358)"/>
<path d="M0 0 C0.33 0 0.66 0 1 0 C1.49230769 6.4 1.49230769 6.4 -1 9.4375 C-1.99 10.2109375 -1.99 10.2109375 -3 11 C-2.32829194 7.1936543 -1.27253436 3.64793184 0 0 Z " fill="#A2A2A2" transform="translate(413,163)"/>
<path d="M0 0 C0.75 1.75 0.75 1.75 1 4 C-0.9375 6.25 -0.9375 6.25 -3 8 C-3.33 7.34 -3.66 6.68 -4 6 C-2.68 4.02 -1.36 2.04 0 0 Z " fill="#929292" transform="translate(213,156)"/>
<path d="M0 0 C0.99 0.33 1.98 0.66 3 1 C1.625 3.5 1.625 3.5 0 6 C-0.66 6 -1.32 6 -2 6 C-1.125 1.125 -1.125 1.125 0 0 Z " fill="#777777" transform="translate(367,430)"/>
<path d="M0 0 C2.0625 0.4375 2.0625 0.4375 4 1 C1.03 3.475 1.03 3.475 -2 6 C-1.125 1.125 -1.125 1.125 0 0 Z " fill="#888888" transform="translate(389,252)"/>
<path d="M0 0 C1.32 0.33 2.64 0.66 4 1 C2.35 2.65 0.7 4.3 -1 6 C-1.33 5.01 -1.66 4.02 -2 3 C-1.34 2.01 -0.68 1.02 0 0 Z " fill="#565656" transform="translate(357,241)"/>
<path d="M0 0 C-0.66 1.32 -1.32 2.64 -2 4 C-4.31 4 -6.62 4 -9 4 C-8 2 -8 2 -5.625 0.875 C-3 0 -3 0 0 0 Z " fill="#9A9A9A" transform="translate(96,43)"/>
</svg>
